<svg xml:space="preserve" viewBox="0 0 85 85" height="85px" width="85px" y="0px" x="0px" xmlns:xlink="http://www.w3.org/1999/xlink" xmlns="http://www.w3.org/2000/svg" id="Capa_1" version="1.1">
<g id="Capa_1_1_">
	<g>
		<linearGradient y2="32.25" x2="74" y1="32.25" x1="10.12" gradientUnits="userSpaceOnUse" id="Body_3_">
			<stop style="stop-color:#EDEDED" offset="0.1922"></stop>
			<stop style="stop-color:#DBDBDB" offset="0.3889"></stop>
			<stop style="stop-color:#ADADAD" offset="0.7806"></stop>
			<stop style="stop-color:#9F9F9F" offset="0.8911"></stop>
		</linearGradient>
		<path d="M10.1,59.9V22.6c0-9.9,8.2-18,18.2-18h27.6c10,0,18.1,8.1,18.1,18v37.3H10.1z" fill="url(#Body_3_)" id="Body_1_"></path>
		<path d="M74,60.3H10.1c-0.2,0-0.4-0.2-0.4-0.4V22.6C9.7,12.4,18,4.2,28.3,4.2h27.6
			c10.2,0,18.5,8.2,18.5,18.4v37.3C74.4,60.1,74.2,60.3,74,60.3z M10.5,59.5h63.1V22.6c0-9.7-8-17.6-17.8-17.6H28.3
			c-9.8,0-17.8,7.9-17.8,17.6V59.5z" fill="#5A5A5A" display="none"></path>
	</g>
	<g>
		
			<linearGradient gradientTransform="matrix(1 0 0 -1 0 88)" y2="16.075" x2="74.03" y1="16.075" x1="10.12" gradientUnits="userSpaceOnUse" id="Body_4_">
			<stop style="stop-color:#F1CCC7" offset="0.4913"></stop>
			<stop style="stop-color:#916F5D" offset="1"></stop>
		</linearGradient>
		<path d="M74,59.8v6.4c0,9.9-8.2,18-18.2,18H28.3c-10,0-18.1-8.1-18.1-18v-6.3
			C10.1,59.8,74,59.8,74,59.8z" fill="url(#Body_4_)" id="Body_2_"></path>
		<path d="M55.9,84.5H28.3C18,84.5,9.7,76.2,9.7,66.1v-6.7h64.7v6.7C74.4,76.2,66.1,84.5,55.9,84.5z
			 M10.5,60.2v6c0,9.7,8,17.6,17.8,17.6h27.6c9.8,0,17.8-7.9,17.8-17.6v-6C73.6,60.2,10.5,60.2,10.5,60.2z" fill="#5A5A5A" display="none"></path>
	</g>
	<g>
		<path d="M37.6,78.6L37.6,78.6c-0.2,0-0.4-0.2-0.4-0.4V65.7c0-0.2,0.2-0.4,0.4-0.4l0,0c0.2,0,0.4,0.2,0.4,0.4v12.5
			C38,78.4,37.8,78.6,37.6,78.6z" fill="#5A5A5A"></path>
		<path d="M36.2,77.1L36.2,77.1c-0.2,0-0.4-0.2-0.4-0.4v-8.7c0-0.2,0.2-0.4,0.4-0.4l0,0c0.2,0,0.4,0.2,0.4,0.4v8.7
			C36.5,76.9,36.4,77.1,36.2,77.1z" fill="#5A5A5A"></path>
		<path d="M34.7,75.2L34.7,75.2c-0.2,0-0.4-0.2-0.4-0.4v-5c0-0.2,0.2-0.4,0.4-0.4l0,0c0.2,0,0.4,0.2,0.4,0.4v5
			C35.1,75,35,75.2,34.7,75.2z" fill="#5A5A5A"></path>
		<path d="M41.9,78.6L41.9,78.6c-0.2,0-0.4-0.2-0.4-0.4V65.7c0-0.2,0.2-0.4,0.4-0.4l0,0c0.2,0,0.4,0.2,0.4,0.4v12.5
			C42.3,78.4,42.1,78.6,41.9,78.6z" fill="#5A5A5A"></path>
		<path d="M40.5,77.1L40.5,77.1c-0.2,0-0.4-0.2-0.4-0.4v-8.7c0-0.2,0.2-0.4,0.4-0.4l0,0c0.2,0,0.4,0.2,0.4,0.4v8.7
			C40.8,76.9,40.7,77.1,40.5,77.1z" fill="#5A5A5A"></path>
		<path d="M39,75.2L39,75.2c-0.2,0-0.4-0.2-0.4-0.4v-5c0-0.2,0.2-0.4,0.4-0.4l0,0c0.2,0,0.4,0.2,0.4,0.4v5
			C39.4,75,39.2,75.2,39,75.2z" fill="#5A5A5A"></path>
		<path d="M46.2,78.6L46.2,78.6c-0.2,0-0.4-0.2-0.4-0.4V65.7c0-0.2,0.2-0.4,0.4-0.4l0,0c0.2,0,0.4,0.2,0.4,0.4v12.5
			C46.5,78.4,46.4,78.6,46.2,78.6z" fill="#5A5A5A"></path>
		<path d="M44.7,77.1L44.7,77.1c-0.2,0-0.4-0.2-0.4-0.4v-8.7c0-0.2,0.2-0.4,0.4-0.4l0,0c0.2,0,0.4,0.2,0.4,0.4v8.7
			C45.1,76.9,44.9,77.1,44.7,77.1z" fill="#5A5A5A"></path>
		<path d="M43.3,75.2L43.3,75.2c-0.2,0-0.4-0.2-0.4-0.4v-5c0-0.2,0.2-0.4,0.4-0.4l0,0c0.2,0,0.4,0.2,0.4,0.4v5
			C43.7,75,43.5,75.2,43.3,75.2z" fill="#5A5A5A"></path>
		<path d="M49.2,77.1L49.2,77.1c-0.2,0-0.4-0.2-0.4-0.4v-8.7c0-0.2,0.2-0.4,0.4-0.4l0,0c0.2,0,0.4,0.2,0.4,0.4v8.7
			C49.6,76.9,49.4,77.1,49.2,77.1z" fill="#5A5A5A"></path>
		<path d="M47.7,75.2L47.7,75.2c-0.2,0-0.4-0.2-0.4-0.4v-5c0-0.2,0.2-0.4,0.4-0.4l0,0c0.2,0,0.4,0.2,0.4,0.4v5
			C48,75,47.9,75.2,47.7,75.2z" fill="#5A5A5A"></path>
		<path d="M50.7,75.2L50.7,75.2c-0.2,0-0.4-0.2-0.4-0.4v-5c0-0.2,0.2-0.4,0.4-0.4l0,0c0.2,0,0.4,0.2,0.4,0.4v5
			C51.1,75,50.9,75.2,50.7,75.2z" fill="#5A5A5A"></path>
	</g>
	<g>
		<ellipse ry="25" rx="25.3" cy="26" cx="42.1" fill="#EFEFEF" id="Frame_1_"></ellipse>
		<linearGradient y2="25.99" x2="67.78" y1="25.99" x1="16.38" gradientUnits="userSpaceOnUse" id="SVGID_1_">
			<stop style="stop-color:#EDEDED" offset="0.1922"></stop>
			<stop style="stop-color:#DBDBDB" offset="0.3889"></stop>
			<stop style="stop-color:#ADADAD" offset="0.7806"></stop>
			<stop style="stop-color:#9F9F9F" offset="0.8911"></stop>
		</linearGradient>
		<path d="M42.1,51.4C27.9,51.4,16.4,40,16.4,26S27.9,0.6,42.1,0.6S67.8,12,67.8,26
			C67.8,40,56.2,51.4,42.1,51.4z M42.1,1.4C28.4,1.4,17.2,12.4,17.2,26s11.2,24.7,24.9,24.7S67,39.6,67,26S55.8,1.4,42.1,1.4z" fill="url(#SVGID_1_)"></path>
	</g>
	<g id="Face_2_">
		<ellipse ry="18.4" rx="18.5" cy="25.8" cx="42.1"></ellipse>
		<g id="Capa_5_1_">
			<g id="Ojos_1_">
				<path d="M33.4,29.2c-2.6,0-4.8-2.1-4.8-4.7s2.1-4.7,4.8-4.7s4.8,2.1,4.8,4.7S36,29.2,33.4,29.2z M33.4,20.9
					c-2,0-3.7,1.6-3.7,3.7s1.7,3.7,3.7,3.7s3.7-1.6,3.7-3.7S35.5,20.9,33.4,20.9z" fill="#FFFFFF"></path>
				<path d="M49.9,29.2c-2.6,0-4.8-2.1-4.8-4.7s2.1-4.7,4.8-4.7s4.8,2.1,4.8,4.7S52.5,29.2,49.9,29.2z M49.9,20.9
					c-2,0-3.7,1.6-3.7,3.7s1.7,3.7,3.7,3.7s3.7-1.6,3.7-3.7S51.9,20.9,49.9,20.9z" fill="#FFFFFF"></path>
			</g>
			<g id="Boca_1_">
				<path d="M42.1,35.1H42c-2,0-3.5-1.2-3.5-2.6h1.1c0,0.8,1.1,1.6,2.5,1.6c1.3,0,2.5-0.7,2.5-1.6h1
					C45.6,33.9,44.1,35,42.1,35.1L42.1,35.1z" fill="#FFFFFF"></path>
			</g>
			<g id="Brillo_1_">
				<ellipse ry="1.2" rx="1.2" cy="24.1" cx="32.5" fill="#FFFFFF"></ellipse>
				<ellipse ry="1.2" rx="1.2" cy="24.1" cx="48.7" fill="#FFFFFF"></ellipse>
			</g>
		</g>
	</g>
</g>
</svg>
