<?xml version="1.0" encoding="utf-8"?>
<!-- Generator: Adobe Illustrator 24.3.0, SVG Export Plug-In . SVG Version: 6.00 Build 0)  -->
<svg version="1.1" xmlns="http://www.w3.org/2000/svg" xmlns:xlink="http://www.w3.org/1999/xlink" x="0px" y="0px" width="679.9px"
	 height="180.3px" viewBox="0 0 679.9 180.3" enable-background="new 0 0 679.9 180.3" xml:space="preserve">
<g id="Capa_3" display="none">
	<rect display="inline" fill="#006FF4" width="679.9" height="180.3"/>
</g>
<g id="Capa_1">
	<g id="Kori">
		<g>
			<path fill="#FFFFFF" d="M212.7,179V0h36.1v79.5l73-79.5h48.6L303,69.7L374,179h-46.8L278,95l-29.3,29.9V179H212.7z"/>
			<path fill="#FFFFFF" d="M372.3,110.7c0-11.4,2.8-22.4,8.4-33.1s13.6-18.8,23.9-24.4s21.8-8.4,34.5-8.4c19.6,0,35.7,6.4,48.2,19.1
				s18.8,28.8,18.8,48.3c0,19.6-6.3,35.9-19,48.8s-28.6,19.3-47.8,19.3c-11.9,0-23.2-2.7-34-8.1c-10.8-5.4-19-13.2-24.6-23.6
				C375.1,138.3,372.3,125.6,372.3,110.7z M407.4,112.6c0,12.9,3.1,22.7,9.2,29.5c6.1,6.8,13.6,10.3,22.6,10.3s16.5-3.4,22.5-10.3
				s9.1-16.8,9.1-29.8c0-12.7-3-22.5-9.1-29.3s-13.6-10.3-22.5-10.3c-9,0-16.5,3.4-22.6,10.3S407.4,99.7,407.4,112.6z"/>
			<path fill="#FFFFFF" d="M565.7,179.4h-34.3V49.8h31.9v18.4c5.5-8.7,10.4-14.4,14.7-17.2c4.4-2.8,9.3-4.2,14.8-4.2
				c7.8,0,15.3,2.2,22.6,6.5l-10.6,29.9c-5.8-3.7-11.2-5.6-16.1-5.6c-4.8,0-8.9,1.3-12.2,4c-3.3,2.6-6,7.4-7.9,14.3
				c-1.9,6.9-2.9,21.4-2.9,43.5V179.4L565.7,179.4z"/>
			<path fill="#FFFFFF" d="M630.2,32.2V0.4h34.3v31.7L630.2,32.2L630.2,32.2z M630.2,179.4V49.8h34.3v129.6H630.2L630.2,179.4z"/>
		</g>
	</g>
</g>
<g id="Capa_2">
	<g id="Icono">
		<g id="Cabeza">
			<path fill="#FFFFFF" d="M93,180c-49.5,0-89.8-40.3-89.8-89.8C3.2,40.6,43.5,0.4,93,0.4c49.5,0,89.8,40.3,89.8,89.8
				C182.8,139.7,142.5,180,93,180z M93,6.4C46.8,6.4,9.2,43.9,9.2,90.1C9.2,136.4,46.8,174,93,174s83.8-37.6,83.8-83.8
				C176.8,43.9,139.2,6.4,93,6.4z"/>
		</g>
		<g id="Cara">
			<g id="Ojos">
				<path fill="#FFFFFF" d="M52.5,106.9c-12.6,0-22.9-10.3-22.9-22.9s10.3-22.9,22.9-22.9c12.6,0,22.9,10.3,22.9,22.9
					S65.1,106.9,52.5,106.9z M52.5,67.2c-9.3,0-16.9,7.6-16.9,16.9c0,9.3,7.6,16.9,16.9,16.9s16.9-7.6,16.9-16.9
					C69.4,74.8,61.8,67.2,52.5,67.2z"/>
				<path fill="#FFFFFF" d="M129.5,106.9c-5.9,0-11.7-2.2-16.2-6.7c-8.9-8.9-8.9-23.4,0-32.3h0c0,0,0,0,0,0
					c4.3-4.3,10.1-6.7,16.2-6.7c6.1,0,11.8,2.4,16.2,6.7c4.3,4.3,6.7,10.1,6.7,16.2c0,6.1-2.4,11.8-6.7,16.2
					C141.2,104.7,135.3,106.9,129.5,106.9z M129.5,67.2c-4.5,0-8.7,1.8-11.9,4.9h0c-6.6,6.6-6.6,17.3,0,23.8
					c6.6,6.6,17.3,6.6,23.8,0c3.2-3.2,4.9-7.4,4.9-11.9c0-4.5-1.8-8.7-4.9-11.9C138.2,69,134,67.2,129.5,67.2z"/>
			</g>
			<g id="Boca">
				<path fill="#FFFFFF" d="M93.3,134.6l-0.6,0c-9.4-0.2-16.6-5.8-16.6-13h6c0,3.7,5,6.9,10.9,7c5.9-0.1,10.9-3.3,10.9-7h6
					C109.9,128.7,102.7,134.3,93.3,134.6L93.3,134.6z"/>
			</g>
			<path display="none" fill="#FFFFFF" d="M92.7,121.6l0.6,0c9.4,0.2,16.6,5.8,16.6,13h-6c0-3.7-5-6.9-10.9-7
				c-5.9,0.1-10.9,3.3-10.9,7h-6C76.1,127.4,83.4,121.8,92.7,121.6L92.7,121.6z"/>
			<g id="Brillo">
				<circle fill="#FFFFFF" cx="48.2" cy="82.3" r="5.6"/>
				<circle fill="#FFFFFF" cx="123.9" cy="82.3" r="5.6"/>
			</g>
		</g>
	</g>
</g>
</svg>
