<?xml version="1.0" encoding="utf-8"?>
<!-- Generator: Adobe Illustrator 24.3.0, SVG Export Plug-In . SVG Version: 6.00 Build 0)  -->
<svg version="1.1" xmlns="http://www.w3.org/2000/svg" xmlns:xlink="http://www.w3.org/1999/xlink" x="0px" y="0px" width="142.1px"
	 height="142.3px" viewBox="0 0 142.1 142.3" enable-background="new 0 0 142.1 142.3" xml:space="preserve">
<g id="Shadow">
	<ellipse id="Shadow_1_" opacity="0.18" cx="70" cy="129.9" rx="47.9" ry="6"/>
</g>
<g id="Capa_1">
	<g id="Capa_1_2_" display="none">
		<g id="Capa_1_1_" display="inline">
			<g>
				
					<linearGradient id="Body_5_" gradientUnits="userSpaceOnUse" x1="22.1" y1="-575.5988" x2="117.9" y2="-575.5988" gradientTransform="matrix(1 0 0 -1 0 -524.6488)">
					<stop  offset="0.4913" style="stop-color:#FFFFFF"/>
					<stop  offset="1" style="stop-color:#9F9F9F"/>
				</linearGradient>
				<path id="Body_1_" fill="url(#Body_5_)" d="M22.1,92.4v-56c0-14.8,12.3-26.9,27.2-26.9h41.4c15,0,27.2,12.1,27.2,26.9v56H22.1z"
					/>
				<path fill="#5A5A5A" d="M118,93H22.1c-0.3,0-0.6-0.3-0.6-0.6v-56C21.5,21.2,34,8.8,49.4,8.8h41.4c15.3,0,27.8,12.3,27.8,27.5v56
					C118.6,92.7,118.3,93,118,93z M22.7,91.8h94.6V36.4c0-14.5-11.9-26.4-26.6-26.4H49.4c-14.7,0-26.6,11.8-26.6,26.4v55.4H22.7z"/>
			</g>
			<g>
				
					<linearGradient id="Body_6_" gradientUnits="userSpaceOnUse" x1="22.1999" y1="-635.0488" x2="118" y2="-635.0488" gradientTransform="matrix(1 0 0 -1 0 -524.6488)">
					<stop  offset="0.4913" style="stop-color:#F1CCC7"/>
					<stop  offset="1" style="stop-color:#916F5D"/>
				</linearGradient>
				<path id="Body_2_" fill="url(#Body_6_)" d="M118,92.2v9.5c0,14.8-12.3,26.9-27.2,26.9H49.4c-15,0-27.2-12.1-27.2-26.9v-9.5
					C22.1,92.2,118,92.2,118,92.2z"/>
				<path fill="#5A5A5A" d="M90.8,129.2H49.4c-15.3,0-27.8-12.3-27.8-27.5V91.6h97v10.1C118.6,116.9,106.1,129.2,90.8,129.2z
					 M22.7,92.8v8.9c0,14.5,11.9,26.4,26.6,26.4h41.4c14.7,0,26.6-11.8,26.6-26.4v-8.9C117.4,92.8,22.7,92.8,22.7,92.8z"/>
			</g>
			<g>
				<path fill="#5A5A5A" d="M63.4,120.4L63.4,120.4c-0.3,0-0.6-0.3-0.6-0.6V101c0-0.3,0.3-0.6,0.6-0.6l0,0c0.3,0,0.6,0.3,0.6,0.6
					v18.8C64,120.1,63.7,120.4,63.4,120.4z"/>
				<path fill="#5A5A5A" d="M61.2,118.1L61.2,118.1c-0.3,0-0.6-0.3-0.6-0.6v-13.1c0-0.3,0.3-0.6,0.6-0.6l0,0c0.3,0,0.6,0.3,0.6,0.6
					v13.1C61.8,117.8,61.6,118.1,61.2,118.1z"/>
				<path fill="#5A5A5A" d="M59.1,115.3L59.1,115.3c-0.3,0-0.6-0.3-0.6-0.6v-7.5c0-0.3,0.3-0.6,0.6-0.6l0,0c0.3,0,0.6,0.3,0.6,0.6
					v7.5C59.6,115.1,59.4,115.3,59.1,115.3z"/>
				<path fill="#5A5A5A" d="M69.8,120.4L69.8,120.4c-0.3,0-0.6-0.3-0.6-0.6V101c0-0.3,0.3-0.6,0.6-0.6l0,0c0.3,0,0.6,0.3,0.6,0.6
					v18.8C70.3,120.1,70.1,120.4,69.8,120.4z"/>
				<path fill="#5A5A5A" d="M67.6,118.1L67.6,118.1c-0.3,0-0.6-0.3-0.6-0.6v-13.1c0-0.3,0.3-0.6,0.6-0.6l0,0c0.3,0,0.6,0.3,0.6,0.6
					v13.1C68.2,117.8,67.9,118.1,67.6,118.1z"/>
				<path fill="#5A5A5A" d="M65.5,115.3L65.5,115.3c-0.3,0-0.6-0.3-0.6-0.6v-7.5c0-0.3,0.3-0.6,0.6-0.6l0,0c0.3,0,0.6,0.3,0.6,0.6
					v7.5C66.1,115.1,65.8,115.3,65.5,115.3z"/>
				<path fill="#5A5A5A" d="M76.2,120.4L76.2,120.4c-0.3,0-0.6-0.3-0.6-0.6V101c0-0.3,0.3-0.6,0.6-0.6l0,0c0.3,0,0.6,0.3,0.6,0.6
					v18.8C76.8,120.1,76.5,120.4,76.2,120.4z"/>
				<path fill="#5A5A5A" d="M74,118.1L74,118.1c-0.3,0-0.6-0.3-0.6-0.6v-13.1c0-0.3,0.3-0.6,0.6-0.6l0,0c0.3,0,0.6,0.3,0.6,0.6v13.1
					C74.6,117.8,74.4,118.1,74,118.1z"/>
				<path fill="#5A5A5A" d="M71.9,115.3L71.9,115.3c-0.3,0-0.6-0.3-0.6-0.6v-7.5c0-0.3,0.3-0.6,0.6-0.6l0,0c0.3,0,0.6,0.3,0.6,0.6
					v7.5C72.5,115.1,72.2,115.3,71.9,115.3z"/>
				<path fill="#5A5A5A" d="M80.8,118.1L80.8,118.1c-0.3,0-0.6-0.3-0.6-0.6v-13.1c0-0.3,0.3-0.6,0.6-0.6l0,0c0.3,0,0.6,0.3,0.6,0.6
					v13.1C81.4,117.8,81.1,118.1,80.8,118.1z"/>
				<path fill="#5A5A5A" d="M78.4,115.3L78.4,115.3c-0.3,0-0.6-0.3-0.6-0.6v-7.5c0-0.3,0.3-0.6,0.6-0.6l0,0c0.3,0,0.6,0.3,0.6,0.6
					v7.5C79,115.1,78.7,115.3,78.4,115.3z"/>
				<path fill="#5A5A5A" d="M83,115.3L83,115.3c-0.3,0-0.6-0.3-0.6-0.6v-7.5c0-0.3,0.3-0.6,0.6-0.6l0,0c0.3,0,0.6,0.3,0.6,0.6v7.5
					C83.6,115.1,83.3,115.3,83,115.3z"/>
			</g>
			<g>
				<ellipse id="Frame_1_" fill="#FFFFFF" cx="70.1" cy="41.5" rx="38" ry="37.6"/>
				<path fill="#5A5A5A" d="M70.1,79.7c-21.3,0-38.5-17.1-38.5-38.1S48.8,3.4,70.1,3.4s38.5,17.1,38.5,38.1S91.3,79.7,70.1,79.7z
					 M70.1,4.6c-20.6,0-37.4,16.6-37.4,37s16.8,37,37.4,37s37.4-16.6,37.4-37S90.7,4.6,70.1,4.6z"/>
			</g>
			<g id="Face_2_">
				<ellipse cx="70.1" cy="41.2" rx="27.8" ry="27.5"/>
				<g id="Capa_5_1_">
					<g id="Ojos_1_">
						<path fill="#FFFFFF" d="M57.1,46.4c-3.9,0-7.1-3.2-7.1-7.1s3.2-7.1,7.1-7.1s7.1,3.2,7.1,7.1S61,46.4,57.1,46.4z M57.1,33.8
							c-3.1,0-5.6,2.5-5.6,5.5s2.5,5.5,5.6,5.5s5.6-2.5,5.6-5.5S60.2,33.8,57.1,33.8z"/>
						<path fill="#FFFFFF" d="M81.7,46.4c-3.9,0-7.1-3.2-7.1-7.1s3.2-7.1,7.1-7.1s7.1,3.2,7.1,7.1S85.7,46.4,81.7,46.4z M81.7,33.8
							c-3.1,0-5.6,2.5-5.6,5.5s2.5,5.5,5.6,5.5s5.6-2.5,5.6-5.5S84.8,33.8,81.7,33.8z"/>
					</g>
					<g id="Boca_1_">
						<path fill="#FFFFFF" d="M70.1,55.2L70.1,55.2c-3-0.1-5.3-1.8-5.3-3.9h1.6c0,1.2,1.6,2.3,3.7,2.4c2,0,3.7-1.1,3.7-2.4h1.6
							C75.3,53.4,73.1,55.1,70.1,55.2L70.1,55.2z"/>
					</g>
					<g id="Brillo_1_">
						<ellipse fill="#FFFFFF" cx="55.7" cy="38.8" rx="1.8" ry="1.8"/>
						<ellipse fill="#FFFFFF" cx="79.9" cy="38.8" rx="1.8" ry="1.8"/>
					</g>
				</g>
			</g>
		</g>
	</g>
	<g id="Body">
		<g id="Buttom">
			
				<linearGradient id="Body_7_" gradientUnits="userSpaceOnUse" x1="22.1" y1="768.4" x2="118" y2="768.4" gradientTransform="matrix(1 0 0 1 0 -658)">
				<stop  offset="0.4913" style="stop-color:#F1CCC7"/>
				<stop  offset="1" style="stop-color:#916F5D"/>
			</linearGradient>
			<path id="Body_3_" fill="url(#Body_7_)" d="M118,92.2v9.5c0,14.8-12.3,26.9-27.2,26.9H49.3c-15,0-27.2-12.1-27.2-26.9v-9.5
				C22.1,92.2,118,92.2,118,92.2z"/>
			<path display="none" fill="#5A5A5A" d="M90.7,129.3H49.3c-15.3,0-27.8-12.3-27.8-27.5V91.6h97v10.1
				C118.6,116.9,106.1,129.3,90.7,129.3z M22.7,92.8v8.9c0,14.5,11.9,26.4,26.6,26.4h41.4c14.7,0,26.6-11.8,26.6-26.4v-8.9
				C117.4,92.8,22.7,92.8,22.7,92.8z"/>
		</g>
		<g id="Top">
			
				<linearGradient id="Body_8_" gradientUnits="userSpaceOnUse" x1="22.1" y1="83.05" x2="117.9" y2="83.05" gradientTransform="matrix(1 0 0 -1 0 134)">
				<stop  offset="0.1922" style="stop-color:#EDEDED"/>
				<stop  offset="0.3889" style="stop-color:#DBDBDB"/>
				<stop  offset="0.7806" style="stop-color:#ADADAD"/>
				<stop  offset="0.8911" style="stop-color:#9F9F9F"/>
			</linearGradient>
			<path id="Body_4_" fill="url(#Body_8_)" d="M22.1,92.4v-56c0-14.8,12.3-26.9,27.2-26.9h41.4c15,0,27.2,12.1,27.2,26.9v56H22.1z"
				/>
			<path display="none" fill="#5A5A5A" d="M117.9,93H22.1c-0.3,0-0.6-0.3-0.6-0.6v-56C21.5,21.2,34,8.9,49.3,8.9h41.4
				c15.3,0,27.8,12.3,27.8,27.5v56C118.5,92.7,118.3,93,117.9,93z M22.7,91.8h94.6V36.4c0-14.5-11.9-26.4-26.6-26.4H49.3
				c-14.7,0-26.6,11.8-26.6,26.4C22.7,36.4,22.7,91.8,22.7,91.8z"/>
		</g>
		<g id="Speaker">
			<path fill="#5A5A5A" d="M63.3,120.4L63.3,120.4c-0.3,0-0.6-0.3-0.6-0.6V101c0-0.3,0.3-0.6,0.6-0.6l0,0c0.3,0,0.6,0.3,0.6,0.6
				v18.8C63.9,120.2,63.7,120.4,63.3,120.4z"/>
			<path fill="#5A5A5A" d="M61.2,118.1L61.2,118.1c-0.3,0-0.6-0.3-0.6-0.6v-13.1c0-0.3,0.3-0.6,0.6-0.6l0,0c0.3,0,0.6,0.3,0.6,0.6
				v13.1C61.7,117.9,61.5,118.1,61.2,118.1z"/>
			<path fill="#5A5A5A" d="M59,115.3L59,115.3c-0.3,0-0.6-0.3-0.6-0.6v-7.5c0-0.3,0.3-0.6,0.6-0.6l0,0c0.3,0,0.6,0.3,0.6,0.6v7.5
				C59.6,115.1,59.3,115.3,59,115.3z"/>
			<path fill="#5A5A5A" d="M69.8,120.4L69.8,120.4c-0.3,0-0.6-0.3-0.6-0.6V101c0-0.3,0.3-0.6,0.6-0.6l0,0c0.3,0,0.6,0.3,0.6,0.6
				v18.8C70.3,120.2,70.1,120.4,69.8,120.4z"/>
			<path fill="#5A5A5A" d="M67.6,118.1L67.6,118.1c-0.3,0-0.6-0.3-0.6-0.6v-13.1c0-0.3,0.3-0.6,0.6-0.6l0,0c0.3,0,0.6,0.3,0.6,0.6
				v13.1C68.2,117.9,67.9,118.1,67.6,118.1z"/>
			<path fill="#5A5A5A" d="M65.5,115.3L65.5,115.3c-0.3,0-0.6-0.3-0.6-0.6v-7.5c0-0.3,0.3-0.6,0.6-0.6l0,0c0.3,0,0.6,0.3,0.6,0.6
				v7.5C66.1,115.1,65.8,115.3,65.5,115.3z"/>
			<path fill="#5A5A5A" d="M76.1,120.4L76.1,120.4c-0.3,0-0.6-0.3-0.6-0.6V101c0-0.3,0.3-0.6,0.6-0.6l0,0c0.3,0,0.6,0.3,0.6,0.6
				v18.8C76.7,120.2,76.5,120.4,76.1,120.4z"/>
			<path fill="#5A5A5A" d="M74,118.1L74,118.1c-0.3,0-0.6-0.3-0.6-0.6v-13.1c0-0.3,0.3-0.6,0.6-0.6l0,0c0.3,0,0.6,0.3,0.6,0.6v13.1
				C74.6,117.9,74.3,118.1,74,118.1z"/>
			<path fill="#5A5A5A" d="M71.9,115.3L71.9,115.3c-0.3,0-0.6-0.3-0.6-0.6v-7.5c0-0.3,0.3-0.6,0.6-0.6l0,0c0.3,0,0.6,0.3,0.6,0.6
				v7.5C72.5,115.1,72.2,115.3,71.9,115.3z"/>
			<path fill="#5A5A5A" d="M80.7,118.1L80.7,118.1c-0.3,0-0.6-0.3-0.6-0.6v-13.1c0-0.3,0.3-0.6,0.6-0.6l0,0c0.3,0,0.6,0.3,0.6,0.6
				v13.1C81.3,117.9,81,118.1,80.7,118.1z"/>
			<path fill="#5A5A5A" d="M78.4,115.3L78.4,115.3c-0.3,0-0.6-0.3-0.6-0.6v-7.5c0-0.3,0.3-0.6,0.6-0.6l0,0c0.3,0,0.6,0.3,0.6,0.6
				v7.5C79,115.1,78.7,115.3,78.4,115.3z"/>
			<path fill="#5A5A5A" d="M82.9,115.3L82.9,115.3c-0.3,0-0.6-0.3-0.6-0.6v-7.5c0-0.3,0.3-0.6,0.6-0.6l0,0c0.3,0,0.6,0.3,0.6,0.6
				v7.5C83.5,115.1,83.3,115.3,82.9,115.3z"/>
		</g>
		<g id="Face_1_">
			<ellipse id="In" fill="#EFEFEF" cx="70" cy="41.5" rx="38" ry="37.6"/>
			
				<linearGradient id="Out_1_" gradientUnits="userSpaceOnUse" x1="31.5" y1="92.45" x2="108.6" y2="92.45" gradientTransform="matrix(1 0 0 -1 0 134)">
				<stop  offset="0.1922" style="stop-color:#EDEDED"/>
				<stop  offset="0.4778" style="stop-color:#DBDBDB"/>
				<stop  offset="0.7806" style="stop-color:#ADADAD"/>
				<stop  offset="0.8911" style="stop-color:#9F9F9F"/>
			</linearGradient>
			<path id="Out" fill="url(#Out_1_)" d="M70,79.7c-21.3,0-38.5-17.1-38.5-38.1S48.8,3.4,70,3.4s38.5,17.1,38.5,38.1
				C108.6,62.6,91.3,79.7,70,79.7z M70,4.6c-20.6,0-37.4,16.6-37.4,37s16.8,37,37.4,37s37.4-16.6,37.4-37S90.6,4.6,70,4.6z"/>
			<ellipse cx="70" cy="41.3" rx="27.8" ry="27.5"/>
		</g>
	</g>
	<g id="Speak" display="none">
		<path display="inline" fill="#FFFFFF" d="M65.8,48.7L65.8,48.7c-2.4,0-4.4-2-4.4-4.4v-5.6c0-2.4,2-4.4,4.4-4.4h0
			c2.4,0,4.4,2,4.4,4.4v5.6C70.2,46.7,68.3,48.7,65.8,48.7z"/>
		<path display="inline" fill="#FFFFFF" d="M56.7,46.9L56.7,46.9c-2.4,0-4.3-1.9-4.3-4.3v-2.2c0-2.4,1.9-4.3,4.3-4.3h0
			c2.4,0,4.3,1.9,4.3,4.3v2.2C61.1,45,59.1,46.9,56.7,46.9z"/>
		<path display="inline" fill="#FFFFFF" d="M75.1,47.3L75.1,47.3c-2.4,0-4.4-2-4.4-4.4V40c0-2.4,2-4.4,4.4-4.4h0
			c2.4,0,4.4,2,4.4,4.4v2.9C79.5,45.3,77.6,47.3,75.1,47.3z"/>
		<path display="inline" fill="#FFFFFF" d="M84.1,46.4L84.1,46.4c-2.4,0-4.3-1.9-4.3-4.3v-1.4c0-2.4,1.9-4.3,4.3-4.3h0
			c2.4,0,4.3,1.9,4.3,4.3v1.4C88.4,44.5,86.5,46.4,84.1,46.4z"/>
	</g>
	<g id="Eyes">
		<g id="Ojos_2_">
			<path fill="#FFFFFF" d="M57.1,46.4c-3.9,0-7.1-3.2-7.1-7.1s3.2-7.1,7.1-7.1s7.1,3.2,7.1,7.1S61,46.4,57.1,46.4z M57.1,33.9
				c-3.1,0-5.6,2.5-5.6,5.5s2.5,5.5,5.6,5.5s5.6-2.5,5.6-5.5C62.6,36.3,60.1,33.9,57.1,33.9z"/>
			<path fill="#FFFFFF" d="M81.7,46.4c-3.9,0-7.1-3.2-7.1-7.1s3.2-7.1,7.1-7.1s7.1,3.2,7.1,7.1S85.7,46.4,81.7,46.4z M81.7,33.9
				c-3.1,0-5.6,2.5-5.6,5.5s2.5,5.5,5.6,5.5s5.6-2.5,5.6-5.5C87.3,36.3,84.8,33.9,81.7,33.9z"/>
		</g>
		<g id="Boca_2_">
			<path fill="#FFFFFF" d="M70.1,55.2h-0.2c-2.9-0.1-5.2-1.8-5.2-3.9h1.6c0,1.2,1.6,2.3,3.7,2.4c2,0,3.7-1.1,3.7-2.4h1.6
				C75.3,53.4,73,55.1,70.1,55.2L70.1,55.2z"/>
		</g>
		<g id="Brillo_2_">
			<ellipse fill="#FFFFFF" cx="55.7" cy="38.8" rx="1.8" ry="1.8"/>
			<ellipse fill="#FFFFFF" cx="79.9" cy="38.8" rx="1.8" ry="1.8"/>
		</g>
	</g>
</g>
</svg>
