<?xml version="1.0" encoding="utf-8"?>
<!-- Generator: Adobe Illustrator 24.3.0, SVG Export Plug-In . SVG Version: 6.00 Build 0)  -->
<svg version="1.1" xmlns="http://www.w3.org/2000/svg" xmlns:xlink="http://www.w3.org/1999/xlink" x="0px" y="0px" width="230.9px"
	 height="137.1px" viewBox="0 0 230.9 137.1" enable-background="new 0 0 230.9 137.1" xml:space="preserve">
<g id="Capa_2">
	<rect fill="#F09B15" width="230.9" height="137.1"/>
</g>
<g id="Capa_1" opacity="0.18">
	<path fill="#FFFFFF" d="M28.8,115.5c0.6-1.6,0.3-3.4-0.5-4.8c-1.3-2.2-3.9-3.4-6.4-2.9c-1.1-1.3-2.8-2-4.5-2
		c-2.6,0-4.9,1.7-5.7,4.2c-1.6,0.3-3,1.4-3.9,2.8c-1.3,2.2-1,5,0.7,7c-0.6,1.6-0.3,3.4,0.5,4.8c1.3,2.2,3.8,3.4,6.4,2.9
		c1.1,1.3,2.7,2,4.4,2c2.6,0,4.9-1.7,5.7-4.1c1.7-0.3,3.1-1.4,3.9-2.9C30.9,120.3,30.5,117.5,28.8,115.5L28.8,115.5z M26.9,111.5
		c0.5,0.9,0.7,1.9,0.6,3c0,0-0.1-0.1-0.2-0.1l-4.7-2.7c-0.2-0.2-0.6-0.2-0.8,0l-5.5,3.2v-2.4l4.6-2.6
		C23,108.6,25.7,109.4,26.9,111.5z M16.4,116.3l2.3-1.4l2.3,1.4v2.7l-2.3,1.4l-2.3-1.4C16.4,119,16.4,116.3,16.4,116.3z M17.4,107.4
		c1,0,2.1,0.3,2.8,1c0,0-0.1,0.1-0.2,0.1l-4.7,2.7c-0.2,0.2-0.3,0.4-0.3,0.6v6.4l-2-1.2v-5.2C13,109.4,15,107.4,17.4,107.4
		L17.4,107.4z M9.2,113.6L9.2,113.6c0.5-0.9,1.4-1.6,2.3-1.9v5.6c0,0.3,0.2,0.6,0.4,0.6l5.5,3.2l-2,1.2l-4.6-2.6
		C8.7,118.4,8,115.7,9.2,113.6z M10.4,123.9L10.4,123.9c-0.6-0.9-0.7-1.9-0.6-3c0,0,0.1,0.1,0.2,0.1l4.7,2.7c0.2,0.2,0.6,0.2,0.8,0
		l5.5-3.2v2.3l-4.6,2.6C14.3,126.7,11.7,126,10.4,123.9L10.4,123.9z M19.9,127.9c-1,0-2.1-0.4-2.8-1c0,0,0.1-0.1,0.2-0.1l4.7-2.7
		c0.2-0.2,0.4-0.4,0.4-0.6v-6.4l2,1.2v5.3C24.4,125.9,22.4,127.9,19.9,127.9L19.9,127.9z M28.2,121.7c-0.5,0.9-1.4,1.6-2.3,1.9V118
		c0-0.3-0.2-0.6-0.4-0.6l0,0l-5.5-3.2l2-1.1l4.6,2.6C28.7,116.9,29.4,119.6,28.2,121.7L28.2,121.7z"/>
	<path fill="#FFFFFF" d="M28.8,82.2c0.6-1.6,0.3-3.4-0.5-4.8c-1.3-2.2-3.9-3.4-6.4-2.9c-1.1-1.3-2.8-2-4.5-2c-2.6,0-4.9,1.7-5.7,4.2
		c-1.6,0.3-3,1.4-3.9,2.8c-1.3,2.2-1,5,0.7,7c-0.6,1.6-0.3,3.4,0.5,4.8c1.3,2.2,3.8,3.4,6.4,2.9c1.1,1.3,2.7,2,4.4,2
		c2.6,0,4.9-1.7,5.7-4.1c1.7-0.3,3.1-1.4,3.9-2.9C30.9,87,30.5,84.2,28.8,82.2L28.8,82.2z M26.9,78.2c0.5,0.9,0.7,1.9,0.6,3
		c0,0-0.1-0.1-0.2-0.1l-4.7-2.7c-0.2-0.2-0.6-0.2-0.8,0l-5.5,3.2v-2.4l4.6-2.6C23,75.3,25.7,76.1,26.9,78.2z M16.4,83l2.3-1.4L21,83
		v2.7l-2.3,1.4l-2.3-1.4C16.4,85.7,16.4,83,16.4,83z M17.4,74.1c1,0,2.1,0.3,2.8,1c0,0-0.1,0.1-0.2,0.1l-4.7,2.7
		c-0.2,0.2-0.3,0.4-0.3,0.6v6.4l-2-1.2v-5.2C13,76.1,15,74.1,17.4,74.1L17.4,74.1z M9.2,80.3L9.2,80.3c0.5-0.9,1.4-1.6,2.3-1.9V84
		c0,0.3,0.2,0.6,0.4,0.6l5.5,3.2l-2,1.2l-4.6-2.6C8.7,85.1,8,82.4,9.2,80.3z M10.4,90.6L10.4,90.6c-0.6-0.9-0.7-1.9-0.6-3
		c0,0,0.1,0.1,0.2,0.1l4.7,2.7c0.2,0.2,0.6,0.2,0.8,0l5.5-3.2v2.3l-4.6,2.6C14.3,93.4,11.7,92.7,10.4,90.6L10.4,90.6z M19.9,94.6
		c-1,0-2.1-0.4-2.8-1c0,0,0.1-0.1,0.2-0.1l4.7-2.7c0.2-0.2,0.4-0.4,0.4-0.6v-6.4l2,1.2v5.3C24.4,92.6,22.4,94.6,19.9,94.6L19.9,94.6
		z M28.2,88.4c-0.5,0.9-1.4,1.6-2.3,1.9v-5.6c0-0.3-0.2-0.6-0.4-0.6l0,0L20,80.9l2-1.1l4.6,2.6C28.7,83.6,29.4,86.3,28.2,88.4
		L28.2,88.4z"/>
	<path fill="#FFFFFF" d="M148.9,98.8c0.6-1.6,0.3-3.4-0.5-4.8c-1.3-2.2-3.9-3.4-6.4-2.9c-1.1-1.3-2.8-2-4.5-2
		c-2.6,0-4.9,1.7-5.7,4.2c-1.6,0.3-3,1.4-3.9,2.8c-1.3,2.2-1,5,0.7,7c-0.6,1.6-0.3,3.4,0.5,4.8c1.3,2.2,3.8,3.4,6.4,2.9
		c1.1,1.3,2.7,2,4.4,2c2.6,0,4.9-1.7,5.7-4.1c1.7-0.3,3.1-1.4,3.9-2.9C151,103.6,150.6,100.8,148.9,98.8L148.9,98.8z M147,94.8
		c0.5,0.9,0.7,1.9,0.6,3c0,0-0.1-0.1-0.2-0.1l-4.7-2.7c-0.2-0.2-0.6-0.2-0.8,0l-5.5,3.2v-2.4l4.6-2.6
		C143.1,91.9,145.8,92.7,147,94.8z M136.5,99.6l2.3-1.4l2.3,1.4v2.7l-2.3,1.4l-2.3-1.4C136.5,102.3,136.5,99.6,136.5,99.6z
		 M137.5,90.7c1,0,2.1,0.3,2.8,1c0,0-0.1,0.1-0.2,0.1l-4.7,2.7c-0.2,0.2-0.3,0.4-0.3,0.6v6.4l-2-1.2v-5.2
		C133.1,92.7,135.1,90.7,137.5,90.7L137.5,90.7z M129.3,96.9L129.3,96.9c0.5-0.9,1.4-1.6,2.3-1.9v5.6c0,0.3,0.2,0.6,0.4,0.6l5.5,3.2
		l-2,1.2l-4.6-2.6C128.8,101.7,128.1,99,129.3,96.9z M130.5,107.2L130.5,107.2c-0.6-0.9-0.7-1.9-0.6-3c0,0,0.1,0.1,0.2,0.1l4.7,2.7
		c0.2,0.2,0.6,0.2,0.8,0l5.5-3.2v2.3l-4.6,2.6C134.4,110,131.8,109.3,130.5,107.2L130.5,107.2z M140,111.2c-1,0-2.1-0.4-2.8-1
		c0,0,0.1-0.1,0.2-0.1l4.7-2.7c0.2-0.2,0.4-0.4,0.4-0.6v-6.4l2,1.2v5.3C144.5,109.2,142.5,111.2,140,111.2L140,111.2z M148.3,105
		c-0.5,0.9-1.4,1.6-2.3,1.9v-5.6c0-0.3-0.2-0.6-0.4-0.6l0,0l-5.5-3.2l2-1.1l4.6,2.6C148.8,100.2,149.5,102.9,148.3,105L148.3,105z"
		/>
	<path fill="#FFFFFF" d="M148.9,32.1c0.6-1.6,0.3-3.4-0.5-4.8c-1.3-2.2-3.9-3.4-6.4-2.9c-1.1-1.3-2.8-2-4.5-2
		c-2.6,0-4.9,1.7-5.7,4.2c-1.6,0.3-3,1.4-3.9,2.8c-1.3,2.2-1,5,0.7,7c-0.6,1.6-0.3,3.4,0.5,4.8c1.3,2.2,3.8,3.4,6.4,2.9
		c1.1,1.3,2.7,2,4.4,2c2.6,0,4.9-1.7,5.7-4.1c1.7-0.3,3.1-1.4,3.9-2.9C151,36.9,150.6,34.1,148.9,32.1L148.9,32.1z M147,28.1
		c0.5,0.9,0.7,1.9,0.6,3c0,0-0.1-0.1-0.2-0.1l-4.7-2.7c-0.2-0.2-0.6-0.2-0.8,0l-5.5,3.2v-2.4l4.6-2.6C143.1,25.2,145.8,26,147,28.1z
		 M136.5,32.9l2.3-1.4l2.3,1.4v2.7l-2.3,1.4l-2.3-1.4C136.5,35.6,136.5,32.9,136.5,32.9z M137.5,24c1,0,2.1,0.3,2.8,1
		c0,0-0.1,0.1-0.2,0.1l-4.7,2.7c-0.2,0.2-0.3,0.4-0.3,0.6v6.4l-2-1.2v-5.2C133.1,26,135.1,24,137.5,24L137.5,24z M129.3,30.2
		L129.3,30.2c0.5-0.9,1.4-1.6,2.3-1.9v5.6c0,0.3,0.2,0.6,0.4,0.6l5.5,3.2l-2,1.2l-4.6-2.6C128.8,35,128.1,32.3,129.3,30.2z
		 M130.5,40.5L130.5,40.5c-0.6-0.9-0.7-1.9-0.6-3c0,0,0.1,0.1,0.2,0.1l4.7,2.7c0.2,0.2,0.6,0.2,0.8,0l5.5-3.2v2.3l-4.6,2.6
		C134.4,43.3,131.8,42.6,130.5,40.5L130.5,40.5z M140,44.5c-1,0-2.1-0.4-2.8-1c0,0,0.1-0.1,0.2-0.1l4.7-2.7c0.2-0.2,0.4-0.4,0.4-0.6
		v-6.4l2,1.2v5.3C144.5,42.5,142.5,44.5,140,44.5L140,44.5z M148.3,38.3c-0.5,0.9-1.4,1.6-2.3,1.9v-5.6c0-0.3-0.2-0.6-0.4-0.6l0,0
		l-5.5-3.2l2-1.1l4.6,2.6C148.8,33.5,149.5,36.2,148.3,38.3L148.3,38.3z"/>
	<path fill="#FFFFFF" d="M148.9,65.5c0.6-1.6,0.3-3.4-0.5-4.8c-1.3-2.2-3.9-3.4-6.4-2.9c-1.1-1.3-2.8-2-4.5-2
		c-2.6,0-4.9,1.7-5.7,4.2c-1.6,0.3-3,1.4-3.9,2.8c-1.3,2.2-1,5,0.7,7c-0.6,1.6-0.3,3.4,0.5,4.8c1.3,2.2,3.8,3.4,6.4,2.9
		c1.1,1.3,2.7,2,4.4,2c2.6,0,4.9-1.7,5.7-4.1c1.7-0.3,3.1-1.4,3.9-2.9C151,70.3,150.6,67.5,148.9,65.5L148.9,65.5z M147,61.5
		c0.5,0.9,0.7,1.9,0.6,3c0,0-0.1-0.1-0.2-0.1l-4.7-2.7c-0.2-0.2-0.6-0.2-0.8,0l-5.5,3.2v-2.4l4.6-2.6
		C143.1,58.6,145.8,59.4,147,61.5z M136.5,66.3l2.3-1.4l2.3,1.4V69l-2.3,1.4l-2.3-1.4C136.5,69,136.5,66.3,136.5,66.3z M137.5,57.4
		c1,0,2.1,0.3,2.8,1c0,0-0.1,0.1-0.2,0.1l-4.7,2.7c-0.2,0.2-0.3,0.4-0.3,0.6v6.4l-2-1.2v-5.2C133.1,59.4,135.1,57.4,137.5,57.4
		L137.5,57.4z M129.3,63.6L129.3,63.6c0.5-0.9,1.4-1.6,2.3-1.9v5.6c0,0.3,0.2,0.6,0.4,0.6l5.5,3.2l-2,1.2l-4.6-2.6
		C128.8,68.4,128.1,65.7,129.3,63.6z M130.5,73.9L130.5,73.9c-0.6-0.9-0.7-1.9-0.6-3c0,0,0.1,0.1,0.2,0.1l4.7,2.7
		c0.2,0.2,0.6,0.2,0.8,0l5.5-3.2v2.3l-4.6,2.6C134.4,76.7,131.8,76,130.5,73.9L130.5,73.9z M140,77.9c-1,0-2.1-0.4-2.8-1
		c0,0,0.1-0.1,0.2-0.1l4.7-2.7c0.2-0.2,0.4-0.4,0.4-0.6v-6.4l2,1.2v5.3C144.5,75.9,142.5,77.9,140,77.9L140,77.9z M148.3,71.7
		c-0.5,0.9-1.4,1.6-2.3,1.9V68c0-0.3-0.2-0.6-0.4-0.6l0,0l-5.5-3.2l2-1.1l4.6,2.6C148.8,66.9,149.5,69.6,148.3,71.7L148.3,71.7z"/>
	<path fill="#FFFFFF" d="M28.1,48.8c0.6-1.6,0.3-3.4-0.5-4.8c-1.3-2.2-3.9-3.4-6.4-2.9c-1.1-1.3-2.8-2-4.5-2c-2.6,0-4.9,1.7-5.7,4.2
		c-1.6,0.3-3,1.4-3.9,2.8c-1.3,2.2-1,5,0.7,7c-0.6,1.6-0.3,3.4,0.5,4.8c1.3,2.2,3.8,3.4,6.4,2.9c1.1,1.3,2.7,2,4.4,2
		c2.6,0,4.9-1.7,5.7-4.1c1.7-0.3,3.1-1.4,3.9-2.9C30.2,53.6,29.8,50.8,28.1,48.8L28.1,48.8z M26.2,44.8c0.5,0.9,0.7,1.9,0.6,3
		c0,0-0.1-0.1-0.2-0.1L21.9,45c-0.2-0.2-0.6-0.2-0.8,0l-5.5,3.2v-2.4l4.6-2.6C22.3,41.9,25,42.7,26.2,44.8z M15.7,49.6l2.3-1.4
		l2.3,1.4v2.7L18,53.7l-2.3-1.4C15.7,52.3,15.7,49.6,15.7,49.6z M16.7,40.7c1,0,2.1,0.3,2.8,1c0,0-0.1,0.1-0.2,0.1l-4.7,2.7
		c-0.2,0.2-0.3,0.4-0.3,0.6v6.4l-2-1.2v-5.2C12.3,42.7,14.3,40.7,16.7,40.7L16.7,40.7z M8.5,46.9L8.5,46.9C9,46,9.9,45.3,10.8,45
		v5.6c0,0.3,0.2,0.6,0.4,0.6l5.5,3.2l-2,1.2L10.1,53C8,51.7,7.3,49,8.5,46.9z M9.7,57.2L9.7,57.2c-0.6-0.9-0.7-1.9-0.6-3
		c0,0,0.1,0.1,0.2,0.1L14,57c0.2,0.2,0.6,0.2,0.8,0l5.5-3.2v2.3l-4.6,2.6C13.6,60,11,59.3,9.7,57.2L9.7,57.2z M19.2,61.2
		c-1,0-2.1-0.4-2.8-1c0,0,0.1-0.1,0.2-0.1l4.7-2.7c0.2-0.2,0.4-0.4,0.4-0.6v-6.4l2,1.2v5.3C23.7,59.2,21.7,61.2,19.2,61.2L19.2,61.2
		z M27.5,55c-0.5,0.9-1.4,1.6-2.3,1.9v-5.6c0-0.3-0.2-0.6-0.4-0.6l0,0l-5.5-3.2l2-1.1l4.6,2.6C28,50.2,28.7,52.9,27.5,55L27.5,55z"
		/>
	<path fill="#FFFFFF" d="M28.3,15.5c0.6-1.6,0.3-3.4-0.5-4.8c-1.3-2.2-3.9-3.4-6.4-2.9c-1.1-1.3-2.8-2-4.5-2c-2.6,0-4.9,1.7-5.7,4.2
		c-1.6,0.3-3,1.4-3.9,2.8c-1.3,2.2-1,5,0.7,7c-0.6,1.6-0.3,3.4,0.5,4.8c1.3,2.2,3.8,3.4,6.4,2.9c1.1,1.3,2.7,2,4.4,2
		c2.6,0,4.9-1.7,5.7-4.1c1.7-0.3,3.1-1.4,3.9-2.9C30.4,20.3,30,17.5,28.3,15.5L28.3,15.5z M26.4,11.5c0.5,0.9,0.7,1.9,0.6,3
		c0,0-0.1-0.1-0.2-0.1l-4.7-2.7c-0.2-0.2-0.6-0.2-0.8,0l-5.5,3.2v-2.4l4.6-2.6C22.5,8.6,25.2,9.4,26.4,11.5z M15.9,16.3l2.3-1.4
		l2.3,1.4V19l-2.3,1.4L15.9,19C15.9,19,15.9,16.3,15.9,16.3z M16.9,7.4c1,0,2.1,0.3,2.8,1c0,0-0.1,0.1-0.2,0.1l-4.7,2.7
		c-0.2,0.2-0.3,0.4-0.3,0.6v6.4l-2-1.2v-5.2C12.5,9.4,14.5,7.4,16.9,7.4L16.9,7.4z M8.7,13.6L8.7,13.6c0.5-0.9,1.4-1.6,2.3-1.9v5.6
		c0,0.3,0.2,0.6,0.4,0.6l5.5,3.2l-2,1.2l-4.6-2.6C8.2,18.4,7.5,15.7,8.7,13.6z M9.9,23.9L9.9,23.9c-0.6-0.9-0.7-1.9-0.6-3
		c0,0,0.1,0.1,0.2,0.1l4.7,2.7c0.2,0.2,0.6,0.2,0.8,0l5.5-3.2v2.3l-4.6,2.6C13.8,26.7,11.2,26,9.9,23.9L9.9,23.9z M19.4,27.9
		c-1,0-2.1-0.4-2.8-1c0,0,0.1-0.1,0.2-0.1l4.7-2.7c0.2-0.2,0.4-0.4,0.4-0.6v-6.4l2,1.2v5.3C23.9,25.9,21.9,27.9,19.4,27.9L19.4,27.9
		z M27.7,21.7c-0.5,0.9-1.4,1.6-2.3,1.9V18c0-0.3-0.2-0.6-0.4-0.6l0,0l-5.5-3.2l2-1.1l4.6,2.6C28.2,16.9,28.9,19.6,27.7,21.7
		L27.7,21.7z"/>
	<path fill="#FFFFFF" d="M173,16.7c0.6-1.6,0.3-3.4-0.5-4.8c-1.3-2.2-3.9-3.4-6.4-2.9c-1.1-1.3-2.8-2-4.5-2c-2.6,0-4.9,1.7-5.7,4.2
		c-1.6,0.3-3,1.4-3.9,2.8c-1.3,2.2-1,5,0.7,7c-0.6,1.6-0.3,3.4,0.5,4.8c1.3,2.2,3.8,3.4,6.4,2.9c1.1,1.3,2.7,2,4.4,2
		c2.6,0,4.9-1.7,5.7-4.1c1.7-0.3,3.1-1.4,3.9-2.9C175.1,21.5,174.7,18.7,173,16.7L173,16.7z M171.1,12.7c0.5,0.9,0.7,1.9,0.6,3
		c0,0-0.1-0.1-0.2-0.1l-4.7-2.7c-0.2-0.2-0.6-0.2-0.8,0l-5.5,3.2v-2.4l4.6-2.6C167.2,9.8,169.9,10.6,171.1,12.7z M160.6,17.5
		l2.3-1.4l2.3,1.4v2.7l-2.3,1.4l-2.3-1.4C160.6,20.2,160.6,17.5,160.6,17.5z M161.6,8.6c1,0,2.1,0.3,2.8,1c0,0-0.1,0.1-0.2,0.1
		l-4.7,2.7c-0.2,0.2-0.3,0.4-0.3,0.6v6.4l-2-1.2V13C157.2,10.6,159.2,8.6,161.6,8.6L161.6,8.6z M153.4,14.8L153.4,14.8
		c0.5-0.9,1.4-1.6,2.3-1.9v5.6c0,0.3,0.2,0.6,0.4,0.6l5.5,3.2l-2,1.2l-4.6-2.6C152.9,19.6,152.2,16.9,153.4,14.8z M154.6,25.1
		L154.6,25.1c-0.6-0.9-0.7-1.9-0.6-3c0,0,0.1,0.1,0.2,0.1l4.7,2.7c0.2,0.2,0.6,0.2,0.8,0l5.5-3.2V24l-4.6,2.6
		C158.5,27.9,155.9,27.2,154.6,25.1L154.6,25.1z M164.1,29.1c-1,0-2.1-0.4-2.8-1c0,0,0.1-0.1,0.2-0.1l4.7-2.7
		c0.2-0.2,0.4-0.4,0.4-0.6v-6.4l2,1.2v5.3C168.6,27.1,166.6,29.1,164.1,29.1L164.1,29.1z M172.4,22.9c-0.5,0.9-1.4,1.6-2.3,1.9v-5.6
		c0-0.3-0.2-0.6-0.4-0.6l0,0l-5.5-3.2l2-1.1l4.6,2.6C172.9,18.1,173.6,20.8,172.4,22.9L172.4,22.9z"/>
	<path fill="#FFFFFF" d="M52.9,100.1c0.6-1.6,0.3-3.4-0.5-4.8c-1.3-2.2-3.9-3.4-6.4-2.9c-1.1-1.3-2.8-2-4.5-2
		c-2.6,0-4.9,1.7-5.7,4.2c-1.6,0.3-3,1.4-3.9,2.8c-1.3,2.2-1,5,0.7,7c-0.6,1.6-0.3,3.4,0.5,4.8c1.3,2.2,3.8,3.4,6.4,2.9
		c1.1,1.3,2.7,2,4.4,2c2.6,0,4.9-1.7,5.7-4.1c1.7-0.3,3.1-1.4,3.9-2.9C55,104.9,54.6,102.1,52.9,100.1L52.9,100.1z M51,96.1
		c0.5,0.9,0.7,1.9,0.6,3c0,0-0.1-0.1-0.2-0.1l-4.7-2.7c-0.2-0.2-0.6-0.2-0.8,0l-5.5,3.2v-2.4l4.6-2.6C47.1,93.2,49.8,94,51,96.1z
		 M40.5,100.9l2.3-1.4l2.3,1.4v2.7l-2.3,1.4l-2.3-1.4C40.5,103.6,40.5,100.9,40.5,100.9z M41.5,92c1,0,2.1,0.3,2.8,1
		c0,0-0.1,0.1-0.2,0.1l-4.7,2.7c-0.2,0.2-0.3,0.4-0.3,0.6v6.4l-2-1.2v-5.2C37.1,94,39.1,92,41.5,92L41.5,92z M33.3,98.2L33.3,98.2
		c0.5-0.9,1.4-1.6,2.3-1.9v5.6c0,0.3,0.2,0.6,0.4,0.6l5.5,3.2l-2,1.2l-4.6-2.6C32.8,103,32.1,100.3,33.3,98.2z M34.5,108.5
		L34.5,108.5c-0.6-0.9-0.7-1.9-0.6-3c0,0,0.1,0.1,0.2,0.1l4.7,2.7c0.2,0.2,0.6,0.2,0.8,0l5.5-3.2v2.3l-4.6,2.6
		C38.4,111.3,35.8,110.6,34.5,108.5L34.5,108.5z M44,112.5c-1,0-2.1-0.4-2.8-1c0,0,0.1-0.1,0.2-0.1l4.7-2.7c0.2-0.2,0.4-0.4,0.4-0.6
		v-6.4l2,1.2v5.3C48.5,110.5,46.5,112.5,44,112.5L44,112.5z M52.3,106.3c-0.5,0.9-1.4,1.6-2.3,1.9v-5.6c0-0.3-0.2-0.6-0.4-0.6l0,0
		l-5.5-3.2l2-1.1l4.6,2.6C52.8,101.5,53.5,104.2,52.3,106.3L52.3,106.3z"/>
	<path fill="#FFFFFF" d="M173,116.8c0.6-1.6,0.3-3.4-0.5-4.8c-1.3-2.2-3.9-3.4-6.4-2.9c-1.1-1.3-2.8-2-4.5-2c-2.6,0-4.9,1.7-5.7,4.2
		c-1.6,0.3-3,1.4-3.9,2.8c-1.3,2.2-1,5,0.7,7c-0.6,1.6-0.3,3.4,0.5,4.8c1.3,2.2,3.8,3.4,6.4,2.9c1.1,1.3,2.7,2,4.4,2
		c2.6,0,4.9-1.7,5.7-4.1c1.7-0.3,3.1-1.4,3.9-2.9C175.1,121.6,174.7,118.8,173,116.8L173,116.8z M171.1,112.8c0.5,0.9,0.7,1.9,0.6,3
		c0,0-0.1-0.1-0.2-0.1l-4.7-2.7c-0.2-0.2-0.6-0.2-0.8,0l-5.5,3.2v-2.4l4.6-2.6C167.2,109.9,169.9,110.7,171.1,112.8z M160.6,117.6
		l2.3-1.4l2.3,1.4v2.7l-2.3,1.4l-2.3-1.4C160.6,120.3,160.6,117.6,160.6,117.6z M161.6,108.7c1,0,2.1,0.3,2.8,1c0,0-0.1,0.1-0.2,0.1
		l-4.7,2.7c-0.2,0.2-0.3,0.4-0.3,0.6v6.4l-2-1.2v-5.2C157.2,110.7,159.2,108.7,161.6,108.7L161.6,108.7z M153.4,114.9L153.4,114.9
		c0.5-0.9,1.4-1.6,2.3-1.9v5.6c0,0.3,0.2,0.6,0.4,0.6l5.5,3.2l-2,1.2L155,121C152.9,119.7,152.2,117,153.4,114.9z M154.6,125.2
		L154.6,125.2c-0.6-0.9-0.7-1.9-0.6-3c0,0,0.1,0.1,0.2,0.1l4.7,2.7c0.2,0.2,0.6,0.2,0.8,0l5.5-3.2v2.3l-4.6,2.6
		C158.5,128,155.9,127.3,154.6,125.2L154.6,125.2z M164.1,129.2c-1,0-2.1-0.4-2.8-1c0,0,0.1-0.1,0.2-0.1l4.7-2.7
		c0.2-0.2,0.4-0.4,0.4-0.6v-6.4l2,1.2v5.3C168.6,127.2,166.6,129.2,164.1,129.2L164.1,129.2z M172.4,123c-0.5,0.9-1.4,1.6-2.3,1.9
		v-5.6c0-0.3-0.2-0.6-0.4-0.6l0,0l-5.5-3.2l2-1.1l4.6,2.6C172.9,118.2,173.6,120.9,172.4,123L172.4,123z"/>
	<path fill="#FFFFFF" d="M173,50.1c0.6-1.6,0.3-3.4-0.5-4.8c-1.3-2.2-3.9-3.4-6.4-2.9c-1.1-1.3-2.8-2-4.5-2c-2.6,0-4.9,1.7-5.7,4.2
		c-1.6,0.3-3,1.4-3.9,2.8c-1.3,2.2-1,5,0.7,7c-0.6,1.6-0.3,3.4,0.5,4.8c1.3,2.2,3.8,3.4,6.4,2.9c1.1,1.3,2.7,2,4.4,2
		c2.6,0,4.9-1.7,5.7-4.1c1.7-0.3,3.1-1.4,3.9-2.9C175.1,54.9,174.7,52.1,173,50.1L173,50.1z M171.1,46.1c0.5,0.9,0.7,1.9,0.6,3
		c0,0-0.1-0.1-0.2-0.1l-4.7-2.7c-0.2-0.2-0.6-0.2-0.8,0l-5.5,3.2v-2.4l4.6-2.6C167.2,43.2,169.9,44,171.1,46.1z M160.6,50.9l2.3-1.4
		l2.3,1.4v2.7l-2.3,1.4l-2.3-1.4C160.6,53.6,160.6,50.9,160.6,50.9z M161.6,42c1,0,2.1,0.3,2.8,1c0,0-0.1,0.1-0.2,0.1l-4.7,2.7
		c-0.2,0.2-0.3,0.4-0.3,0.6v6.4l-2-1.2v-5.2C157.2,44,159.2,42,161.6,42L161.6,42z M153.4,48.2L153.4,48.2c0.5-0.9,1.4-1.6,2.3-1.9
		v5.6c0,0.3,0.2,0.6,0.4,0.6l5.5,3.2l-2,1.2l-4.6-2.6C152.9,53,152.2,50.3,153.4,48.2z M154.6,58.5L154.6,58.5
		c-0.6-0.9-0.7-1.9-0.6-3c0,0,0.1,0.1,0.2,0.1l4.7,2.7c0.2,0.2,0.6,0.2,0.8,0l5.5-3.2v2.3l-4.6,2.6
		C158.5,61.3,155.9,60.6,154.6,58.5L154.6,58.5z M164.1,62.5c-1,0-2.1-0.4-2.8-1c0,0,0.1-0.1,0.2-0.1l4.7-2.7
		c0.2-0.2,0.4-0.4,0.4-0.6v-6.4l2,1.2v5.3C168.6,60.5,166.6,62.5,164.1,62.5L164.1,62.5z M172.4,56.3c-0.5,0.9-1.4,1.6-2.3,1.9v-5.6
		c0-0.3-0.2-0.6-0.4-0.6l0,0l-5.5-3.2l2-1.1l4.6,2.6C172.9,51.5,173.6,54.2,172.4,56.3L172.4,56.3z"/>
	<path fill="#FFFFFF" d="M173,83.4c0.6-1.6,0.3-3.4-0.5-4.8c-1.3-2.2-3.9-3.4-6.4-2.9c-1.1-1.3-2.8-2-4.5-2c-2.6,0-4.9,1.7-5.7,4.2
		c-1.6,0.3-3,1.4-3.9,2.8c-1.3,2.2-1,5,0.7,7c-0.6,1.6-0.3,3.4,0.5,4.8c1.3,2.2,3.8,3.4,6.4,2.9c1.1,1.3,2.7,2,4.4,2
		c2.6,0,4.9-1.7,5.7-4.1c1.7-0.3,3.1-1.4,3.9-2.9C175.1,88.2,174.7,85.4,173,83.4L173,83.4z M171.1,79.4c0.5,0.9,0.7,1.9,0.6,3
		c0,0-0.1-0.1-0.2-0.1l-4.7-2.7c-0.2-0.2-0.6-0.2-0.8,0l-5.5,3.2v-2.4l4.6-2.6C167.2,76.5,169.9,77.3,171.1,79.4z M160.6,84.2
		l2.3-1.4l2.3,1.4v2.7l-2.3,1.4l-2.3-1.4C160.6,86.9,160.6,84.2,160.6,84.2z M161.6,75.3c1,0,2.1,0.3,2.8,1c0,0-0.1,0.1-0.2,0.1
		l-4.7,2.7c-0.2,0.2-0.3,0.4-0.3,0.6v6.4l-2-1.2v-5.2C157.2,77.3,159.2,75.3,161.6,75.3L161.6,75.3z M153.4,81.5L153.4,81.5
		c0.5-0.9,1.4-1.6,2.3-1.9v5.6c0,0.3,0.2,0.6,0.4,0.6l5.5,3.2l-2,1.2l-4.6-2.6C152.9,86.3,152.2,83.6,153.4,81.5z M154.6,91.8
		L154.6,91.8c-0.6-0.9-0.7-1.9-0.6-3c0,0,0.1,0.1,0.2,0.1l4.7,2.7c0.2,0.2,0.6,0.2,0.8,0l5.5-3.2v2.3l-4.6,2.6
		C158.5,94.6,155.9,93.9,154.6,91.8L154.6,91.8z M164.1,95.8c-1,0-2.1-0.4-2.8-1c0,0,0.1-0.1,0.2-0.1l4.7-2.7
		c0.2-0.2,0.4-0.4,0.4-0.6V85l2,1.2v5.3C168.6,93.8,166.6,95.8,164.1,95.8L164.1,95.8z M172.4,89.6c-0.5,0.9-1.4,1.6-2.3,1.9v-5.6
		c0-0.3-0.2-0.6-0.4-0.6l0,0l-5.5-3.2l2-1.1l4.6,2.6C172.9,84.8,173.6,87.5,172.4,89.6L172.4,89.6z"/>
	<path fill="#FFFFFF" d="M52.2,66.8c0.6-1.6,0.3-3.4-0.5-4.8c-1.3-2.2-3.9-3.4-6.4-2.9c-1.1-1.3-2.8-2-4.5-2c-2.6,0-4.9,1.7-5.7,4.2
		c-1.6,0.3-3,1.4-3.9,2.8c-1.3,2.2-1,5,0.7,7c-0.6,1.6-0.3,3.4,0.5,4.8c1.3,2.2,3.8,3.4,6.4,2.9c1.1,1.3,2.7,2,4.4,2
		c2.6,0,4.9-1.7,5.7-4.1c1.7-0.3,3.1-1.4,3.9-2.9C54.3,71.6,53.9,68.8,52.2,66.8L52.2,66.8z M50.3,62.8c0.5,0.9,0.7,1.9,0.6,3
		c0,0-0.1-0.1-0.2-0.1L46,63c-0.2-0.2-0.6-0.2-0.8,0l-5.5,3.2v-2.4l4.6-2.6C46.4,59.9,49.1,60.7,50.3,62.8z M39.8,67.6l2.3-1.4
		l2.3,1.4v2.7l-2.3,1.4l-2.3-1.4C39.8,70.3,39.8,67.6,39.8,67.6z M40.8,58.7c1,0,2.1,0.3,2.8,1c0,0-0.1,0.1-0.2,0.1l-4.7,2.7
		c-0.2,0.2-0.3,0.4-0.3,0.6v6.4l-2-1.2v-5.2C36.4,60.7,38.4,58.7,40.8,58.7L40.8,58.7z M32.6,64.9L32.6,64.9
		c0.5-0.9,1.4-1.6,2.3-1.9v5.6c0,0.3,0.2,0.6,0.4,0.6l5.5,3.2l-2,1.2L34.2,71C32.1,69.7,31.4,67,32.6,64.9z M33.8,75.2L33.8,75.2
		c-0.6-0.9-0.7-1.9-0.6-3c0,0,0.1,0.1,0.2,0.1l4.7,2.7c0.2,0.2,0.6,0.2,0.8,0l5.5-3.2v2.3l-4.6,2.6C37.7,78,35.1,77.3,33.8,75.2
		L33.8,75.2z M43.3,79.2c-1,0-2.1-0.4-2.8-1c0,0,0.1-0.1,0.2-0.1l4.7-2.7c0.2-0.2,0.4-0.4,0.4-0.6v-6.4l2,1.2v5.3
		C47.8,77.2,45.8,79.2,43.3,79.2L43.3,79.2z M51.6,73c-0.5,0.9-1.4,1.6-2.3,1.9v-5.6c0-0.3-0.2-0.6-0.4-0.6l0,0l-5.5-3.2l2-1.1
		L50,67C52.1,68.2,52.8,70.9,51.6,73L51.6,73z"/>
	<path fill="#FFFFFF" d="M52.4,33.4c0.6-1.6,0.3-3.4-0.5-4.8c-1.3-2.2-3.9-3.4-6.4-2.9c-1.1-1.3-2.8-2-4.5-2c-2.6,0-4.9,1.7-5.7,4.2
		c-1.6,0.3-3,1.4-3.9,2.8c-1.3,2.2-1,5,0.7,7c-0.6,1.6-0.3,3.4,0.5,4.8c1.3,2.2,3.8,3.4,6.4,2.9c1.1,1.3,2.7,2,4.4,2
		c2.6,0,4.9-1.7,5.7-4.1c1.7-0.3,3.1-1.4,3.9-2.9C54.5,38.2,54.1,35.4,52.4,33.4L52.4,33.4z M50.5,29.4c0.5,0.9,0.7,1.9,0.6,3
		c0,0-0.1-0.1-0.2-0.1l-4.7-2.7c-0.2-0.2-0.6-0.2-0.8,0l-5.5,3.2v-2.4l4.6-2.6C46.6,26.5,49.3,27.3,50.5,29.4z M40,34.2l2.3-1.4
		l2.3,1.4v2.7l-2.3,1.4L40,36.9C40,36.9,40,34.2,40,34.2z M41,25.3c1,0,2.1,0.3,2.8,1c0,0-0.1,0.1-0.2,0.1l-4.7,2.7
		c-0.2,0.2-0.3,0.4-0.3,0.6v6.4l-2-1.2v-5.2C36.6,27.3,38.6,25.3,41,25.3L41,25.3z M32.8,31.5L32.8,31.5c0.5-0.9,1.4-1.6,2.3-1.9
		v5.6c0,0.3,0.2,0.6,0.4,0.6L41,39l-2,1.2l-4.6-2.6C32.3,36.3,31.6,33.6,32.8,31.5z M34,41.8L34,41.8c-0.6-0.9-0.7-1.9-0.6-3
		c0,0,0.1,0.1,0.2,0.1l4.7,2.7c0.2,0.2,0.6,0.2,0.8,0l5.5-3.2v2.3L40,43.3C37.9,44.6,35.3,43.9,34,41.8L34,41.8z M43.5,45.8
		c-1,0-2.1-0.4-2.8-1c0,0,0.1-0.1,0.2-0.1l4.7-2.7c0.2-0.2,0.4-0.4,0.4-0.6V35l2,1.2v5.3C48,43.8,46,45.8,43.5,45.8L43.5,45.8z
		 M51.8,39.6c-0.5,0.9-1.4,1.6-2.3,1.9v-5.6c0-0.3-0.2-0.6-0.4-0.6l0,0l-5.5-3.2l2-1.1l4.6,2.6C52.3,34.8,53,37.5,51.8,39.6
		L51.8,39.6z"/>
	<path fill="#FFFFFF" d="M77.2,115.5c0.6-1.6,0.3-3.4-0.5-4.8c-1.3-2.2-3.9-3.4-6.4-2.9c-1.1-1.3-2.8-2-4.5-2
		c-2.6,0-4.9,1.7-5.7,4.2c-1.6,0.3-3,1.4-3.9,2.8c-1.3,2.2-1,5,0.7,7c-0.6,1.6-0.3,3.4,0.5,4.8c1.3,2.2,3.8,3.4,6.4,2.9
		c1.1,1.3,2.7,2,4.4,2c2.6,0,4.9-1.7,5.7-4.1c1.7-0.3,3.1-1.4,3.9-2.9C79.3,120.3,78.9,117.5,77.2,115.5L77.2,115.5z M75.3,111.5
		c0.5,0.9,0.7,1.9,0.6,3c0,0-0.1-0.1-0.2-0.1l-4.7-2.7c-0.2-0.2-0.6-0.2-0.8,0l-5.5,3.2v-2.4l4.6-2.6
		C71.4,108.6,74.1,109.4,75.3,111.5z M64.8,116.3l2.3-1.4l2.3,1.4v2.7l-2.3,1.4l-2.3-1.4C64.8,119,64.8,116.3,64.8,116.3z
		 M65.8,107.4c1,0,2.1,0.3,2.8,1c0,0-0.1,0.1-0.2,0.1l-4.7,2.7c-0.2,0.2-0.3,0.4-0.3,0.6v6.4l-2-1.2v-5.2
		C61.4,109.4,63.4,107.4,65.8,107.4L65.8,107.4z M57.6,113.6L57.6,113.6c0.5-0.9,1.4-1.6,2.3-1.9v5.6c0,0.3,0.2,0.6,0.4,0.6l5.5,3.2
		l-2,1.2l-4.6-2.6C57.1,118.4,56.4,115.7,57.6,113.6z M58.8,123.9L58.8,123.9c-0.6-0.9-0.7-1.9-0.6-3c0,0,0.1,0.1,0.2,0.1l4.7,2.7
		c0.2,0.2,0.6,0.2,0.8,0l5.5-3.2v2.3l-4.6,2.6C62.7,126.7,60.1,126,58.8,123.9L58.8,123.9z M68.3,127.9c-1,0-2.1-0.4-2.8-1
		c0,0,0.1-0.1,0.2-0.1l4.7-2.7c0.2-0.2,0.4-0.4,0.4-0.6v-6.4l2,1.2v5.3C72.8,125.9,70.8,127.9,68.3,127.9L68.3,127.9z M76.6,121.7
		c-0.5,0.9-1.4,1.6-2.3,1.9V118c0-0.3-0.2-0.6-0.4-0.6l0,0l-5.5-3.2l2-1.1l4.6,2.6C77.1,116.9,77.8,119.6,76.6,121.7L76.6,121.7z"/>
	<path fill="#FFFFFF" d="M77.2,82.2c0.6-1.6,0.3-3.4-0.5-4.8c-1.3-2.2-3.9-3.4-6.4-2.9c-1.1-1.3-2.8-2-4.5-2c-2.6,0-4.9,1.7-5.7,4.2
		c-1.6,0.3-3,1.4-3.9,2.8c-1.3,2.2-1,5,0.7,7c-0.6,1.6-0.3,3.4,0.5,4.8c1.3,2.2,3.8,3.4,6.4,2.9c1.1,1.3,2.7,2,4.4,2
		c2.6,0,4.9-1.7,5.7-4.1c1.7-0.3,3.1-1.4,3.9-2.9C79.3,87,78.9,84.2,77.2,82.2L77.2,82.2z M75.3,78.2c0.5,0.9,0.7,1.9,0.6,3
		c0,0-0.1-0.1-0.2-0.1L71,78.4c-0.2-0.2-0.6-0.2-0.8,0l-5.5,3.2v-2.4l4.6-2.6C71.4,75.3,74.1,76.1,75.3,78.2z M64.8,83l2.3-1.4
		l2.3,1.4v2.7l-2.3,1.4l-2.3-1.4C64.8,85.7,64.8,83,64.8,83z M65.8,74.1c1,0,2.1,0.3,2.8,1c0,0-0.1,0.1-0.2,0.1l-4.7,2.7
		c-0.2,0.2-0.3,0.4-0.3,0.6v6.4l-2-1.2v-5.2C61.4,76.1,63.4,74.1,65.8,74.1L65.8,74.1z M57.6,80.3L57.6,80.3
		c0.5-0.9,1.4-1.6,2.3-1.9V84c0,0.3,0.2,0.6,0.4,0.6l5.5,3.2l-2,1.2l-4.6-2.6C57.1,85.1,56.4,82.4,57.6,80.3z M58.8,90.6L58.8,90.6
		c-0.6-0.9-0.7-1.9-0.6-3c0,0,0.1,0.1,0.2,0.1l4.7,2.7c0.2,0.2,0.6,0.2,0.8,0l5.5-3.2v2.3l-4.6,2.6C62.7,93.4,60.1,92.7,58.8,90.6
		L58.8,90.6z M68.3,94.6c-1,0-2.1-0.4-2.8-1c0,0,0.1-0.1,0.2-0.1l4.7-2.7c0.2-0.2,0.4-0.4,0.4-0.6v-6.4l2,1.2v5.3
		C72.8,92.6,70.8,94.6,68.3,94.6L68.3,94.6z M76.6,88.4c-0.5,0.9-1.4,1.6-2.3,1.9v-5.6c0-0.3-0.2-0.6-0.4-0.6l0,0l-5.5-3.2l2-1.1
		l4.6,2.6C77.1,83.6,77.8,86.3,76.6,88.4L76.6,88.4z"/>
	<path fill="#FFFFFF" d="M197.3,98.8c0.6-1.6,0.3-3.4-0.5-4.8c-1.3-2.2-3.9-3.4-6.4-2.9c-1.1-1.3-2.8-2-4.5-2
		c-2.6,0-4.9,1.7-5.7,4.2c-1.6,0.3-3,1.4-3.9,2.8c-1.3,2.2-1,5,0.7,7c-0.6,1.6-0.3,3.4,0.5,4.8c1.3,2.2,3.8,3.4,6.4,2.9
		c1.1,1.3,2.7,2,4.4,2c2.6,0,4.9-1.7,5.7-4.1c1.7-0.3,3.1-1.4,3.9-2.9C199.4,103.6,199,100.8,197.3,98.8L197.3,98.8z M195.4,94.8
		c0.5,0.9,0.7,1.9,0.6,3c0,0-0.1-0.1-0.2-0.1l-4.7-2.7c-0.2-0.2-0.6-0.2-0.8,0l-5.5,3.2v-2.4l4.6-2.6
		C191.5,91.9,194.2,92.7,195.4,94.8z M184.9,99.6l2.3-1.4l2.3,1.4v2.7l-2.3,1.4l-2.3-1.4C184.9,102.3,184.9,99.6,184.9,99.6z
		 M185.9,90.7c1,0,2.1,0.3,2.8,1c0,0-0.1,0.1-0.2,0.1l-4.7,2.7c-0.2,0.2-0.3,0.4-0.3,0.6v6.4l-2-1.2v-5.2
		C181.5,92.7,183.5,90.7,185.9,90.7L185.9,90.7z M177.7,96.9L177.7,96.9c0.5-0.9,1.4-1.6,2.3-1.9v5.6c0,0.3,0.2,0.6,0.4,0.6l5.5,3.2
		l-2,1.2l-4.6-2.6C177.2,101.7,176.5,99,177.7,96.9z M178.9,107.2L178.9,107.2c-0.6-0.9-0.7-1.9-0.6-3c0,0,0.1,0.1,0.2,0.1l4.7,2.7
		c0.2,0.2,0.6,0.2,0.8,0l5.5-3.2v2.3l-4.6,2.6C182.8,110,180.2,109.3,178.9,107.2L178.9,107.2z M188.4,111.2c-1,0-2.1-0.4-2.8-1
		c0,0,0.1-0.1,0.2-0.1l4.7-2.7c0.2-0.2,0.4-0.4,0.4-0.6v-6.4l2,1.2v5.3C192.9,109.2,190.9,111.2,188.4,111.2L188.4,111.2z
		 M196.7,105c-0.5,0.9-1.4,1.6-2.3,1.9v-5.6c0-0.3-0.2-0.6-0.4-0.6l0,0l-5.5-3.2l2-1.1l4.6,2.6C197.2,100.2,197.9,102.9,196.7,105
		L196.7,105z"/>
	<path fill="#FFFFFF" d="M197.3,32.1c0.6-1.6,0.3-3.4-0.5-4.8c-1.3-2.2-3.9-3.4-6.4-2.9c-1.1-1.3-2.8-2-4.5-2
		c-2.6,0-4.9,1.7-5.7,4.2c-1.6,0.3-3,1.4-3.9,2.8c-1.3,2.2-1,5,0.7,7c-0.6,1.6-0.3,3.4,0.5,4.8c1.3,2.2,3.8,3.4,6.4,2.9
		c1.1,1.3,2.7,2,4.4,2c2.6,0,4.9-1.7,5.7-4.1c1.7-0.3,3.1-1.4,3.9-2.9C199.4,36.9,199,34.1,197.3,32.1L197.3,32.1z M195.4,28.1
		c0.5,0.9,0.7,1.9,0.6,3c0,0-0.1-0.1-0.2-0.1l-4.7-2.7c-0.2-0.2-0.6-0.2-0.8,0l-5.5,3.2v-2.4l4.6-2.6
		C191.5,25.2,194.2,26,195.4,28.1z M184.9,32.9l2.3-1.4l2.3,1.4v2.7l-2.3,1.4l-2.3-1.4C184.9,35.6,184.9,32.9,184.9,32.9z M185.9,24
		c1,0,2.1,0.3,2.8,1c0,0-0.1,0.1-0.2,0.1l-4.7,2.7c-0.2,0.2-0.3,0.4-0.3,0.6v6.4l-2-1.2v-5.2C181.5,26,183.5,24,185.9,24L185.9,24z
		 M177.7,30.2L177.7,30.2c0.5-0.9,1.4-1.6,2.3-1.9v5.6c0,0.3,0.2,0.6,0.4,0.6l5.5,3.2l-2,1.2l-4.6-2.6
		C177.2,35,176.5,32.3,177.7,30.2z M178.9,40.5L178.9,40.5c-0.6-0.9-0.7-1.9-0.6-3c0,0,0.1,0.1,0.2,0.1l4.7,2.7
		c0.2,0.2,0.6,0.2,0.8,0l5.5-3.2v2.3l-4.6,2.6C182.8,43.3,180.2,42.6,178.9,40.5L178.9,40.5z M188.4,44.5c-1,0-2.1-0.4-2.8-1
		c0,0,0.1-0.1,0.2-0.1l4.7-2.7c0.2-0.2,0.4-0.4,0.4-0.6v-6.4l2,1.2v5.3C192.9,42.5,190.9,44.5,188.4,44.5L188.4,44.5z M196.7,38.3
		c-0.5,0.9-1.4,1.6-2.3,1.9v-5.6c0-0.3-0.2-0.6-0.4-0.6l0,0l-5.5-3.2l2-1.1l4.6,2.6C197.2,33.5,197.9,36.2,196.7,38.3L196.7,38.3z"
		/>
	<path fill="#FFFFFF" d="M197.3,65.5c0.6-1.6,0.3-3.4-0.5-4.8c-1.3-2.2-3.9-3.4-6.4-2.9c-1.1-1.3-2.8-2-4.5-2
		c-2.6,0-4.9,1.7-5.7,4.2c-1.6,0.3-3,1.4-3.9,2.8c-1.3,2.2-1,5,0.7,7c-0.6,1.6-0.3,3.4,0.5,4.8c1.3,2.2,3.8,3.4,6.4,2.9
		c1.1,1.3,2.7,2,4.4,2c2.6,0,4.9-1.7,5.7-4.1c1.7-0.3,3.1-1.4,3.9-2.9C199.4,70.3,199,67.5,197.3,65.5L197.3,65.5z M195.4,61.5
		c0.5,0.9,0.7,1.9,0.6,3c0,0-0.1-0.1-0.2-0.1l-4.7-2.7c-0.2-0.2-0.6-0.2-0.8,0l-5.5,3.2v-2.4l4.6-2.6
		C191.5,58.6,194.2,59.4,195.4,61.5z M184.9,66.3l2.3-1.4l2.3,1.4V69l-2.3,1.4l-2.3-1.4C184.9,69,184.9,66.3,184.9,66.3z
		 M185.9,57.4c1,0,2.1,0.3,2.8,1c0,0-0.1,0.1-0.2,0.1l-4.7,2.7c-0.2,0.2-0.3,0.4-0.3,0.6v6.4l-2-1.2v-5.2
		C181.5,59.4,183.5,57.4,185.9,57.4L185.9,57.4z M177.7,63.6L177.7,63.6c0.5-0.9,1.4-1.6,2.3-1.9v5.6c0,0.3,0.2,0.6,0.4,0.6l5.5,3.2
		l-2,1.2l-4.6-2.6C177.2,68.4,176.5,65.7,177.7,63.6z M178.9,73.9L178.9,73.9c-0.6-0.9-0.7-1.9-0.6-3c0,0,0.1,0.1,0.2,0.1l4.7,2.7
		c0.2,0.2,0.6,0.2,0.8,0l5.5-3.2v2.3l-4.6,2.6C182.8,76.7,180.2,76,178.9,73.9L178.9,73.9z M188.4,77.9c-1,0-2.1-0.4-2.8-1
		c0,0,0.1-0.1,0.2-0.1l4.7-2.7c0.2-0.2,0.4-0.4,0.4-0.6v-6.4l2,1.2v5.3C192.9,75.9,190.9,77.9,188.4,77.9L188.4,77.9z M196.7,71.7
		c-0.5,0.9-1.4,1.6-2.3,1.9V68c0-0.3-0.2-0.6-0.4-0.6l0,0l-5.5-3.2l2-1.1l4.6,2.6C197.2,66.9,197.9,69.6,196.7,71.7L196.7,71.7z"/>
	<path fill="#FFFFFF" d="M76.4,48.8c0.6-1.6,0.3-3.4-0.5-4.8c-1.3-2.2-3.9-3.4-6.4-2.9c-1.1-1.3-2.8-2-4.5-2c-2.6,0-4.9,1.7-5.7,4.2
		c-1.6,0.3-3,1.4-3.9,2.8c-1.3,2.2-1,5,0.7,7c-0.6,1.6-0.3,3.4,0.5,4.8c1.3,2.2,3.8,3.4,6.4,2.9c1.1,1.3,2.7,2,4.4,2
		c2.6,0,4.9-1.7,5.7-4.1c1.7-0.3,3.1-1.4,3.9-2.9C78.5,53.6,78.1,50.8,76.4,48.8L76.4,48.8z M74.5,44.8c0.5,0.9,0.7,1.9,0.6,3
		c0,0-0.1-0.1-0.2-0.1L70.2,45c-0.2-0.2-0.6-0.2-0.8,0l-5.5,3.2v-2.4l4.6-2.6C70.6,41.9,73.3,42.7,74.5,44.8z M64,49.6l2.3-1.4
		l2.3,1.4v2.7l-2.3,1.4L64,52.3C64,52.3,64,49.6,64,49.6z M65,40.7c1,0,2.1,0.3,2.8,1c0,0-0.1,0.1-0.2,0.1l-4.7,2.7
		c-0.2,0.2-0.3,0.4-0.3,0.6v6.4l-2-1.2v-5.2C60.6,42.7,62.6,40.7,65,40.7L65,40.7z M56.8,46.9L56.8,46.9c0.5-0.9,1.4-1.6,2.3-1.9
		v5.6c0,0.3,0.2,0.6,0.4,0.6l5.5,3.2l-2,1.2L58.4,53C56.3,51.7,55.6,49,56.8,46.9z M58,57.2L58,57.2c-0.6-0.9-0.7-1.9-0.6-3
		c0,0,0.1,0.1,0.2,0.1l4.7,2.7c0.2,0.2,0.6,0.2,0.8,0l5.5-3.2v2.3L64,58.7C61.9,60,59.3,59.3,58,57.2L58,57.2z M67.5,61.2
		c-1,0-2.1-0.4-2.8-1c0,0,0.1-0.1,0.2-0.1l4.7-2.7c0.2-0.2,0.4-0.4,0.4-0.6v-6.4l2,1.2v5.3C72,59.2,70,61.2,67.5,61.2L67.5,61.2z
		 M75.8,55c-0.5,0.9-1.4,1.6-2.3,1.9v-5.6c0-0.3-0.2-0.6-0.4-0.6l0,0l-5.5-3.2l2-1.1l4.6,2.6C76.3,50.2,77,52.9,75.8,55L75.8,55z"/>
	<path fill="#FFFFFF" d="M76.6,15.5c0.6-1.6,0.3-3.4-0.5-4.8c-1.3-2.2-3.9-3.4-6.4-2.9c-1.1-1.3-2.8-2-4.5-2c-2.6,0-4.9,1.7-5.7,4.2
		c-1.6,0.3-3,1.4-3.9,2.8c-1.3,2.2-1,5,0.7,7c-0.6,1.6-0.3,3.4,0.5,4.8c1.3,2.2,3.8,3.4,6.4,2.9c1.1,1.3,2.7,2,4.4,2
		c2.6,0,4.9-1.7,5.7-4.1c1.7-0.3,3.1-1.4,3.9-2.9C78.7,20.3,78.3,17.5,76.6,15.5L76.6,15.5z M74.7,11.5c0.5,0.9,0.7,1.9,0.6,3
		c0,0-0.1-0.1-0.2-0.1l-4.7-2.7c-0.2-0.2-0.6-0.2-0.8,0l-5.5,3.2v-2.4l4.6-2.6C70.8,8.6,73.5,9.4,74.7,11.5z M64.2,16.3l2.3-1.4
		l2.3,1.4V19l-2.3,1.4L64.2,19C64.2,19,64.2,16.3,64.2,16.3z M65.2,7.4c1,0,2.1,0.3,2.8,1c0,0-0.1,0.1-0.2,0.1l-4.7,2.7
		c-0.2,0.2-0.3,0.4-0.3,0.6v6.4l-2-1.2v-5.2C60.8,9.4,62.8,7.4,65.2,7.4L65.2,7.4z M57,13.6L57,13.6c0.5-0.9,1.4-1.6,2.3-1.9v5.6
		c0,0.3,0.2,0.6,0.4,0.6l5.5,3.2l-2,1.2l-4.6-2.6C56.5,18.4,55.8,15.7,57,13.6z M58.2,23.9L58.2,23.9c-0.6-0.9-0.7-1.9-0.6-3
		c0,0,0.1,0.1,0.2,0.1l4.7,2.7c0.2,0.2,0.6,0.2,0.8,0l5.5-3.2v2.3l-4.6,2.6C62.1,26.7,59.5,26,58.2,23.9L58.2,23.9z M67.7,27.9
		c-1,0-2.1-0.4-2.8-1c0,0,0.1-0.1,0.2-0.1l4.7-2.7c0.2-0.2,0.4-0.4,0.4-0.6v-6.4l2,1.2v5.3C72.2,25.9,70.2,27.9,67.7,27.9L67.7,27.9
		z M76,21.7c-0.5,0.9-1.4,1.6-2.3,1.9V18c0-0.3-0.2-0.6-0.4-0.6l0,0l-5.5-3.2l2-1.1l4.6,2.6C76.5,16.9,77.2,19.6,76,21.7L76,21.7z"
		/>
	<path fill="#FFFFFF" d="M125.1,14c0.6-1.6,0.3-3.4-0.5-4.8c-1.3-2.2-3.9-3.4-6.4-2.9c-1.1-1.3-2.8-2-4.5-2c-2.6,0-4.9,1.7-5.7,4.2
		c-1.6,0.3-3,1.4-3.9,2.8c-1.3,2.2-1,5,0.7,7c-0.6,1.6-0.3,3.4,0.5,4.8c1.3,2.2,3.8,3.4,6.4,2.9c1.1,1.3,2.7,2,4.4,2
		c2.6,0,4.9-1.7,5.7-4.1c1.7-0.3,3.1-1.4,3.9-2.9C127.2,18.8,126.8,16,125.1,14L125.1,14z M123.2,10c0.5,0.9,0.7,1.9,0.6,3
		c0,0-0.1-0.1-0.2-0.1l-4.7-2.7c-0.2-0.2-0.6-0.2-0.8,0l-5.5,3.2V11l4.6-2.6C119.3,7.1,122,7.9,123.2,10z M112.7,14.8l2.3-1.4
		l2.3,1.4v2.7l-2.3,1.4l-2.3-1.4C112.7,17.5,112.7,14.8,112.7,14.8z M113.7,5.9c1,0,2.1,0.3,2.8,1c0,0-0.1,0.1-0.2,0.1l-4.7,2.7
		c-0.2,0.2-0.3,0.4-0.3,0.6v6.4l-2-1.2v-5.2C109.3,7.9,111.3,5.9,113.7,5.9L113.7,5.9z M105.5,12.1L105.5,12.1
		c0.5-0.9,1.4-1.6,2.3-1.9v5.6c0,0.3,0.2,0.6,0.4,0.6l5.5,3.2l-2,1.2l-4.6-2.6C105,16.9,104.3,14.2,105.5,12.1z M106.7,22.4
		L106.7,22.4c-0.6-0.9-0.7-1.9-0.6-3c0,0,0.1,0.1,0.2,0.1l4.7,2.7c0.2,0.2,0.6,0.2,0.8,0l5.5-3.2v2.3l-4.6,2.6
		C110.6,25.2,108,24.5,106.7,22.4L106.7,22.4z M116.2,26.4c-1,0-2.1-0.4-2.8-1c0,0,0.1-0.1,0.2-0.1l4.7-2.7c0.2-0.2,0.4-0.4,0.4-0.6
		v-6.4l2,1.2v5.3C120.7,24.4,118.7,26.4,116.2,26.4L116.2,26.4z M124.5,20.2c-0.5,0.9-1.4,1.6-2.3,1.9v-5.6c0-0.3-0.2-0.6-0.4-0.6
		l0,0l-5.5-3.2l2-1.1l4.6,2.6C125,15.4,125.7,18.1,124.5,20.2L124.5,20.2z"/>
	<path fill="#FFFFFF" d="M101.3,100.1c0.6-1.6,0.3-3.4-0.5-4.8c-1.3-2.2-3.9-3.4-6.4-2.9c-1.1-1.3-2.8-2-4.5-2
		c-2.6,0-4.9,1.7-5.7,4.2c-1.6,0.3-3,1.4-3.9,2.8c-1.3,2.2-1,5,0.7,7c-0.6,1.6-0.3,3.4,0.5,4.8c1.3,2.2,3.8,3.4,6.4,2.9
		c1.1,1.3,2.7,2,4.4,2c2.6,0,4.9-1.7,5.7-4.1c1.7-0.3,3.1-1.4,3.9-2.9C103.4,104.9,103,102.1,101.3,100.1L101.3,100.1z M99.4,96.1
		c0.5,0.9,0.7,1.9,0.6,3c0,0-0.1-0.1-0.2-0.1l-4.7-2.7c-0.2-0.2-0.6-0.2-0.8,0l-5.5,3.2v-2.4l4.6-2.6C95.5,93.2,98.2,94,99.4,96.1z
		 M88.9,100.9l2.3-1.4l2.3,1.4v2.7l-2.3,1.4l-2.3-1.4C88.9,103.6,88.9,100.9,88.9,100.9z M89.9,92c1,0,2.1,0.3,2.8,1
		c0,0-0.1,0.1-0.2,0.1l-4.7,2.7c-0.2,0.2-0.3,0.4-0.3,0.6v6.4l-2-1.2v-5.2C85.5,94,87.5,92,89.9,92L89.9,92z M81.7,98.2L81.7,98.2
		c0.5-0.9,1.4-1.6,2.3-1.9v5.6c0,0.3,0.2,0.6,0.4,0.6l5.5,3.2l-2,1.2l-4.6-2.6C81.2,103,80.5,100.3,81.7,98.2z M82.9,108.5
		L82.9,108.5c-0.6-0.9-0.7-1.9-0.6-3c0,0,0.1,0.1,0.2,0.1l4.7,2.7c0.2,0.2,0.6,0.2,0.8,0l5.5-3.2v2.3l-4.6,2.6
		C86.8,111.3,84.2,110.6,82.9,108.5L82.9,108.5z M92.4,112.5c-1,0-2.1-0.4-2.8-1c0,0,0.1-0.1,0.2-0.1l4.7-2.7
		c0.2-0.2,0.4-0.4,0.4-0.6v-6.4l2,1.2v5.3C96.9,110.5,94.9,112.5,92.4,112.5L92.4,112.5z M100.7,106.3c-0.5,0.9-1.4,1.6-2.3,1.9
		v-5.6c0-0.3-0.2-0.6-0.4-0.6l0,0l-5.5-3.2l2-1.1l4.6,2.6C101.2,101.5,101.9,104.2,100.7,106.3L100.7,106.3z"/>
	<path fill="#FFFFFF" d="M125.1,114c0.6-1.6,0.3-3.4-0.5-4.8c-1.3-2.2-3.9-3.4-6.4-2.9c-1.1-1.3-2.8-2-4.5-2c-2.6,0-4.9,1.7-5.7,4.2
		c-1.6,0.3-3,1.4-3.9,2.8c-1.3,2.2-1,5,0.7,7c-0.6,1.6-0.3,3.4,0.5,4.8c1.3,2.2,3.8,3.4,6.4,2.9c1.1,1.3,2.7,2,4.4,2
		c2.6,0,4.9-1.7,5.7-4.1c1.7-0.3,3.1-1.4,3.9-2.9C127.2,118.8,126.8,116,125.1,114L125.1,114z M123.2,110c0.5,0.9,0.7,1.9,0.6,3
		c0,0-0.1-0.1-0.2-0.1l-4.7-2.7c-0.2-0.2-0.6-0.2-0.8,0l-5.5,3.2V111l4.6-2.6C119.3,107.1,122,107.9,123.2,110z M112.7,114.8
		l2.3-1.4l2.3,1.4v2.7l-2.3,1.4l-2.3-1.4C112.7,117.5,112.7,114.8,112.7,114.8z M113.7,105.9c1,0,2.1,0.3,2.8,1c0,0-0.1,0.1-0.2,0.1
		l-4.7,2.7c-0.2,0.2-0.3,0.4-0.3,0.6v6.4l-2-1.2v-5.2C109.3,107.9,111.3,105.9,113.7,105.9L113.7,105.9z M105.5,112.1L105.5,112.1
		c0.5-0.9,1.4-1.6,2.3-1.9v5.6c0,0.3,0.2,0.6,0.4,0.6l5.5,3.2l-2,1.2l-4.6-2.6C105,116.9,104.3,114.2,105.5,112.1z M106.7,122.4
		L106.7,122.4c-0.6-0.9-0.7-1.9-0.6-3c0,0,0.1,0.1,0.2,0.1l4.7,2.7c0.2,0.2,0.6,0.2,0.8,0l5.5-3.2v2.3l-4.6,2.6
		C110.6,125.2,108,124.5,106.7,122.4L106.7,122.4z M116.2,126.4c-1,0-2.1-0.4-2.8-1c0,0,0.1-0.1,0.2-0.1l4.7-2.7
		c0.2-0.2,0.4-0.4,0.4-0.6v-6.4l2,1.2v5.3C120.7,124.4,118.7,126.4,116.2,126.4L116.2,126.4z M124.5,120.2c-0.5,0.9-1.4,1.6-2.3,1.9
		v-5.6c0-0.3-0.2-0.6-0.4-0.6l0,0l-5.5-3.2l2-1.1l4.6,2.6C125,115.4,125.7,118.1,124.5,120.2L124.5,120.2z"/>
	<path fill="#FFFFFF" d="M125.1,47.3c0.6-1.6,0.3-3.4-0.5-4.8c-1.3-2.2-3.9-3.4-6.4-2.9c-1.1-1.3-2.8-2-4.5-2
		c-2.6,0-4.9,1.7-5.7,4.2c-1.6,0.3-3,1.4-3.9,2.8c-1.3,2.2-1,5,0.7,7c-0.6,1.6-0.3,3.4,0.5,4.8c1.3,2.2,3.8,3.4,6.4,2.9
		c1.1,1.3,2.7,2,4.4,2c2.6,0,4.9-1.7,5.7-4.1c1.7-0.3,3.1-1.4,3.9-2.9C127.2,52.1,126.8,49.3,125.1,47.3L125.1,47.3z M123.2,43.3
		c0.5,0.9,0.7,1.9,0.6,3c0,0-0.1-0.1-0.2-0.1l-4.7-2.7c-0.2-0.2-0.6-0.2-0.8,0l-5.5,3.2v-2.4l4.6-2.6
		C119.3,40.4,122,41.2,123.2,43.3z M112.7,48.1l2.3-1.4l2.3,1.4v2.7l-2.3,1.4l-2.3-1.4C112.7,50.8,112.7,48.1,112.7,48.1z
		 M113.7,39.2c1,0,2.1,0.3,2.8,1c0,0-0.1,0.1-0.2,0.1l-4.7,2.7c-0.2,0.2-0.3,0.4-0.3,0.6V50l-2-1.2v-5.2
		C109.3,41.2,111.3,39.2,113.7,39.2L113.7,39.2z M105.5,45.4L105.5,45.4c0.5-0.9,1.4-1.6,2.3-1.9v5.6c0,0.3,0.2,0.6,0.4,0.6l5.5,3.2
		l-2,1.2l-4.6-2.6C105,50.2,104.3,47.5,105.5,45.4z M106.7,55.7L106.7,55.7c-0.6-0.9-0.7-1.9-0.6-3c0,0,0.1,0.1,0.2,0.1l4.7,2.7
		c0.2,0.2,0.6,0.2,0.8,0l5.5-3.2v2.3l-4.6,2.6C110.6,58.5,108,57.8,106.7,55.7L106.7,55.7z M116.2,59.7c-1,0-2.1-0.4-2.8-1
		c0,0,0.1-0.1,0.2-0.1l4.7-2.7c0.2-0.2,0.4-0.4,0.4-0.6v-6.4l2,1.2v5.3C120.7,57.7,118.7,59.7,116.2,59.7L116.2,59.7z M124.5,53.5
		c-0.5,0.9-1.4,1.6-2.3,1.9v-5.6c0-0.3-0.2-0.6-0.4-0.6l0,0l-5.5-3.2l2-1.1l4.6,2.6C125,48.7,125.7,51.4,124.5,53.5L124.5,53.5z"/>
	<path fill="#FFFFFF" d="M125.1,80.7c0.6-1.6,0.3-3.4-0.5-4.8c-1.3-2.2-3.9-3.4-6.4-2.9c-1.1-1.3-2.8-2-4.5-2
		c-2.6,0-4.9,1.7-5.7,4.2c-1.6,0.3-3,1.4-3.9,2.8c-1.3,2.2-1,5,0.7,7c-0.6,1.6-0.3,3.4,0.5,4.8c1.3,2.2,3.8,3.4,6.4,2.9
		c1.1,1.3,2.7,2,4.4,2c2.6,0,4.9-1.7,5.7-4.1c1.7-0.3,3.1-1.4,3.9-2.9C127.2,85.5,126.8,82.7,125.1,80.7L125.1,80.7z M123.2,76.7
		c0.5,0.9,0.7,1.9,0.6,3c0,0-0.1-0.1-0.2-0.1l-4.7-2.7c-0.2-0.2-0.6-0.2-0.8,0l-5.5,3.2v-2.4l4.6-2.6
		C119.3,73.8,122,74.6,123.2,76.7z M112.7,81.5l2.3-1.4l2.3,1.4v2.7l-2.3,1.4l-2.3-1.4C112.7,84.2,112.7,81.5,112.7,81.5z
		 M113.7,72.6c1,0,2.1,0.3,2.8,1c0,0-0.1,0.1-0.2,0.1l-4.7,2.7c-0.2,0.2-0.3,0.4-0.3,0.6v6.4l-2-1.2V77
		C109.3,74.6,111.3,72.6,113.7,72.6L113.7,72.6z M105.5,78.8L105.5,78.8c0.5-0.9,1.4-1.6,2.3-1.9v5.6c0,0.3,0.2,0.6,0.4,0.6l5.5,3.2
		l-2,1.2l-4.6-2.6C105,83.6,104.3,80.9,105.5,78.8z M106.7,89.1L106.7,89.1c-0.6-0.9-0.7-1.9-0.6-3c0,0,0.1,0.1,0.2,0.1l4.7,2.7
		c0.2,0.2,0.6,0.2,0.8,0l5.5-3.2V88l-4.6,2.6C110.6,91.9,108,91.2,106.7,89.1L106.7,89.1z M116.2,93.1c-1,0-2.1-0.4-2.8-1
		c0,0,0.1-0.1,0.2-0.1l4.7-2.7c0.2-0.2,0.4-0.4,0.4-0.6v-6.4l2,1.2v5.3C120.7,91.1,118.7,93.1,116.2,93.1L116.2,93.1z M124.5,86.9
		c-0.5,0.9-1.4,1.6-2.3,1.9v-5.6c0-0.3-0.2-0.6-0.4-0.6l0,0l-5.5-3.2l2-1.1l4.6,2.6C125,82.1,125.7,84.8,124.5,86.9L124.5,86.9z"/>
	<path fill="#FFFFFF" d="M100.5,66.8c0.6-1.6,0.3-3.4-0.5-4.8c-1.3-2.2-3.9-3.4-6.4-2.9c-1.1-1.3-2.8-2-4.5-2
		c-2.6,0-4.9,1.7-5.7,4.2c-1.6,0.3-3,1.4-3.9,2.8c-1.3,2.2-1,5,0.7,7c-0.6,1.6-0.3,3.4,0.5,4.8c1.3,2.2,3.8,3.4,6.4,2.9
		c1.1,1.3,2.7,2,4.4,2c2.6,0,4.9-1.7,5.7-4.1c1.7-0.3,3.1-1.4,3.9-2.9C102.6,71.6,102.2,68.8,100.5,66.8L100.5,66.8z M98.6,62.8
		c0.5,0.9,0.7,1.9,0.6,3c0,0-0.1-0.1-0.2-0.1L94.3,63c-0.2-0.2-0.6-0.2-0.8,0L88,66.2v-2.4l4.6-2.6C94.7,59.9,97.4,60.7,98.6,62.8z
		 M88.1,67.6l2.3-1.4l2.3,1.4v2.7l-2.3,1.4l-2.3-1.4C88.1,70.3,88.1,67.6,88.1,67.6z M89.1,58.7c1,0,2.1,0.3,2.8,1
		c0,0-0.1,0.1-0.2,0.1L87,62.5c-0.2,0.2-0.3,0.4-0.3,0.6v6.4l-2-1.2v-5.2C84.7,60.7,86.7,58.7,89.1,58.7L89.1,58.7z M80.9,64.9
		L80.9,64.9c0.5-0.9,1.4-1.6,2.3-1.9v5.6c0,0.3,0.2,0.6,0.4,0.6l5.5,3.2l-2,1.2L82.5,71C80.4,69.7,79.7,67,80.9,64.9z M82.1,75.2
		L82.1,75.2c-0.6-0.9-0.7-1.9-0.6-3c0,0,0.1,0.1,0.2,0.1l4.7,2.7c0.2,0.2,0.6,0.2,0.8,0l5.5-3.2v2.3l-4.6,2.6
		C86,78,83.4,77.3,82.1,75.2L82.1,75.2z M91.6,79.2c-1,0-2.1-0.4-2.8-1c0,0,0.1-0.1,0.2-0.1l4.7-2.7c0.2-0.2,0.4-0.4,0.4-0.6v-6.4
		l2,1.2v5.3C96.1,77.2,94.1,79.2,91.6,79.2L91.6,79.2z M99.9,73c-0.5,0.9-1.4,1.6-2.3,1.9v-5.6c0-0.3-0.2-0.6-0.4-0.6l0,0l-5.5-3.2
		l2-1.1l4.6,2.6C100.4,68.2,101.1,70.9,99.9,73L99.9,73z"/>
	<path fill="#FFFFFF" d="M100.7,33.4c0.6-1.6,0.3-3.4-0.5-4.8c-1.3-2.2-3.9-3.4-6.4-2.9c-1.1-1.3-2.8-2-4.5-2
		c-2.6,0-4.9,1.7-5.7,4.2c-1.6,0.3-3,1.4-3.9,2.8c-1.3,2.2-1,5,0.7,7c-0.6,1.6-0.3,3.4,0.5,4.8c1.3,2.2,3.8,3.4,6.4,2.9
		c1.1,1.3,2.7,2,4.4,2c2.6,0,4.9-1.7,5.7-4.1c1.7-0.3,3.1-1.4,3.9-2.9C102.8,38.2,102.4,35.4,100.7,33.4L100.7,33.4z M98.8,29.4
		c0.5,0.9,0.7,1.9,0.6,3c0,0-0.1-0.1-0.2-0.1l-4.7-2.7c-0.2-0.2-0.6-0.2-0.8,0l-5.5,3.2v-2.4l4.6-2.6C94.9,26.5,97.6,27.3,98.8,29.4
		z M88.3,34.2l2.3-1.4l2.3,1.4v2.7l-2.3,1.4l-2.3-1.4C88.3,36.9,88.3,34.2,88.3,34.2z M89.3,25.3c1,0,2.1,0.3,2.8,1
		c0,0-0.1,0.1-0.2,0.1l-4.7,2.7c-0.2,0.2-0.3,0.4-0.3,0.6v6.4l-2-1.2v-5.2C84.9,27.3,86.9,25.3,89.3,25.3L89.3,25.3z M81.1,31.5
		L81.1,31.5c0.5-0.9,1.4-1.6,2.3-1.9v5.6c0,0.3,0.2,0.6,0.4,0.6l5.5,3.2l-2,1.2l-4.6-2.6C80.6,36.3,79.9,33.6,81.1,31.5z M82.3,41.8
		L82.3,41.8c-0.6-0.9-0.7-1.9-0.6-3c0,0,0.1,0.1,0.2,0.1l4.7,2.7c0.2,0.2,0.6,0.2,0.8,0l5.5-3.2v2.3l-4.6,2.6
		C86.2,44.6,83.6,43.9,82.3,41.8L82.3,41.8z M91.8,45.8c-1,0-2.1-0.4-2.8-1c0,0,0.1-0.1,0.2-0.1l4.7-2.7c0.2-0.2,0.4-0.4,0.4-0.6V35
		l2,1.2v5.3C96.3,43.8,94.3,45.8,91.8,45.8L91.8,45.8z M100.1,39.6c-0.5,0.9-1.4,1.6-2.3,1.9v-5.6c0-0.3-0.2-0.6-0.4-0.6l0,0
		l-5.5-3.2l2-1.1l4.6,2.6C100.6,34.8,101.3,37.5,100.1,39.6L100.1,39.6z"/>
	<path fill="#FFFFFF" d="M221,114.7c0.6-1.6,0.3-3.4-0.5-4.8c-1.3-2.2-3.9-3.4-6.4-2.9c-1.1-1.3-2.8-2-4.5-2c-2.6,0-4.9,1.7-5.7,4.2
		c-1.6,0.3-3,1.4-3.9,2.8c-1.3,2.2-1,5,0.7,7c-0.6,1.6-0.3,3.4,0.5,4.8c1.3,2.2,3.8,3.4,6.4,2.9c1.1,1.3,2.7,2,4.4,2
		c2.6,0,4.9-1.7,5.7-4.1c1.7-0.3,3.1-1.4,3.9-2.9C223.1,119.5,222.7,116.7,221,114.7L221,114.7z M219.1,110.7c0.5,0.9,0.7,1.9,0.6,3
		c0,0-0.1-0.1-0.2-0.1l-4.7-2.7c-0.2-0.2-0.6-0.2-0.8,0l-5.5,3.2v-2.4l4.6-2.6C215.2,107.8,217.9,108.6,219.1,110.7z M208.6,115.5
		l2.3-1.4l2.3,1.4v2.7l-2.3,1.4l-2.3-1.4C208.6,118.2,208.6,115.5,208.6,115.5z M209.6,106.6c1,0,2.1,0.3,2.8,1c0,0-0.1,0.1-0.2,0.1
		l-4.7,2.7c-0.2,0.2-0.3,0.4-0.3,0.6v6.4l-2-1.2V111C205.2,108.6,207.2,106.6,209.6,106.6L209.6,106.6z M201.4,112.8L201.4,112.8
		c0.5-0.9,1.4-1.6,2.3-1.9v5.6c0,0.3,0.2,0.6,0.4,0.6l5.5,3.2l-2,1.2l-4.6-2.6C200.9,117.6,200.2,114.9,201.4,112.8z M202.6,123.1
		L202.6,123.1c-0.6-0.9-0.7-1.9-0.6-3c0,0,0.1,0.1,0.2,0.1l4.7,2.7c0.2,0.2,0.6,0.2,0.8,0l5.5-3.2v2.3l-4.6,2.6
		C206.5,125.9,203.9,125.2,202.6,123.1L202.6,123.1z M212.1,127.1c-1,0-2.1-0.4-2.8-1c0,0,0.1-0.1,0.2-0.1l4.7-2.7
		c0.2-0.2,0.4-0.4,0.4-0.6v-6.4l2,1.2v5.3C216.6,125.1,214.6,127.1,212.1,127.1L212.1,127.1z M220.4,120.9c-0.5,0.9-1.4,1.6-2.3,1.9
		v-5.6c0-0.3-0.2-0.6-0.4-0.6l0,0l-5.5-3.2l2-1.1l4.6,2.6C220.9,116.1,221.6,118.8,220.4,120.9L220.4,120.9z"/>
	<path fill="#FFFFFF" d="M221,81.4c0.6-1.6,0.3-3.4-0.5-4.8c-1.3-2.2-3.9-3.4-6.4-2.9c-1.1-1.3-2.8-2-4.5-2c-2.6,0-4.9,1.7-5.7,4.2
		c-1.6,0.3-3,1.4-3.9,2.8c-1.3,2.2-1,5,0.7,7c-0.6,1.6-0.3,3.4,0.5,4.8c1.3,2.2,3.8,3.4,6.4,2.9c1.1,1.3,2.7,2,4.4,2
		c2.6,0,4.9-1.7,5.7-4.1c1.7-0.3,3.1-1.4,3.9-2.9C223.1,86.2,222.7,83.4,221,81.4L221,81.4z M219.1,77.4c0.5,0.9,0.7,1.9,0.6,3
		c0,0-0.1-0.1-0.2-0.1l-4.7-2.7c-0.2-0.2-0.6-0.2-0.8,0l-5.5,3.2v-2.4l4.6-2.6C215.2,74.5,217.9,75.3,219.1,77.4z M208.6,82.2
		l2.3-1.4l2.3,1.4v2.7l-2.3,1.4l-2.3-1.4C208.6,84.9,208.6,82.2,208.6,82.2z M209.6,73.3c1,0,2.1,0.3,2.8,1c0,0-0.1,0.1-0.2,0.1
		l-4.7,2.7c-0.2,0.2-0.3,0.4-0.3,0.6v6.4l-2-1.2v-5.2C205.2,75.3,207.2,73.3,209.6,73.3L209.6,73.3z M201.4,79.5L201.4,79.5
		c0.5-0.9,1.4-1.6,2.3-1.9v5.6c0,0.3,0.2,0.6,0.4,0.6l5.5,3.2l-2,1.2l-4.6-2.6C200.9,84.3,200.2,81.6,201.4,79.5z M202.6,89.8
		L202.6,89.8c-0.6-0.9-0.7-1.9-0.6-3c0,0,0.1,0.1,0.2,0.1l4.7,2.7c0.2,0.2,0.6,0.2,0.8,0l5.5-3.2v2.3l-4.6,2.6
		C206.5,92.6,203.9,91.9,202.6,89.8L202.6,89.8z M212.1,93.8c-1,0-2.1-0.4-2.8-1c0,0,0.1-0.1,0.2-0.1l4.7-2.7
		c0.2-0.2,0.4-0.4,0.4-0.6V83l2,1.2v5.3C216.6,91.8,214.6,93.8,212.1,93.8L212.1,93.8z M220.4,87.6c-0.5,0.9-1.4,1.6-2.3,1.9v-5.6
		c0-0.3-0.2-0.6-0.4-0.6l0,0l-5.5-3.2l2-1.1l4.6,2.6C220.9,82.8,221.6,85.5,220.4,87.6L220.4,87.6z"/>
	<path fill="#FFFFFF" d="M220.2,48c0.6-1.6,0.3-3.4-0.5-4.8c-1.3-2.2-3.9-3.4-6.4-2.9c-1.1-1.3-2.8-2-4.5-2c-2.6,0-4.9,1.7-5.7,4.2
		c-1.6,0.3-3,1.4-3.9,2.8c-1.3,2.2-1,5,0.7,7c-0.6,1.6-0.3,3.4,0.5,4.8c1.3,2.2,3.8,3.4,6.4,2.9c1.1,1.3,2.7,2,4.4,2
		c2.6,0,4.9-1.7,5.7-4.1c1.7-0.3,3.1-1.4,3.9-2.9C222.3,52.8,221.9,50,220.2,48L220.2,48z M218.3,44c0.5,0.9,0.7,1.9,0.6,3
		c0,0-0.1-0.1-0.2-0.1l-4.7-2.7c-0.2-0.2-0.6-0.2-0.8,0l-5.5,3.2V45l4.6-2.6C214.4,41.1,217.1,41.9,218.3,44z M207.8,48.8l2.3-1.4
		l2.3,1.4v2.7l-2.3,1.4l-2.3-1.4C207.8,51.5,207.8,48.8,207.8,48.8z M208.8,39.9c1,0,2.1,0.3,2.8,1c0,0-0.1,0.1-0.2,0.1l-4.7,2.7
		c-0.2,0.2-0.3,0.4-0.3,0.6v6.4l-2-1.2v-5.2C204.4,41.9,206.4,39.9,208.8,39.9L208.8,39.9z M200.6,46.1L200.6,46.1
		c0.5-0.9,1.4-1.6,2.3-1.9v5.6c0,0.3,0.2,0.6,0.4,0.6l5.5,3.2l-2,1.2l-4.6-2.6C200.1,50.9,199.4,48.2,200.6,46.1z M201.8,56.4
		L201.8,56.4c-0.6-0.9-0.7-1.9-0.6-3c0,0,0.1,0.1,0.2,0.1l4.7,2.7c0.2,0.2,0.6,0.2,0.8,0l5.5-3.2v2.3l-4.6,2.6
		C205.7,59.2,203.1,58.5,201.8,56.4L201.8,56.4z M211.3,60.4c-1,0-2.1-0.4-2.8-1c0,0,0.1-0.1,0.2-0.1l4.7-2.7
		c0.2-0.2,0.4-0.4,0.4-0.6v-6.4l2,1.2v5.3C215.8,58.4,213.8,60.4,211.3,60.4L211.3,60.4z M219.6,54.2c-0.5,0.9-1.4,1.6-2.3,1.9v-5.6
		c0-0.3-0.2-0.6-0.4-0.6l0,0l-5.5-3.2l2-1.1l4.6,2.6C220.1,49.4,220.8,52.1,219.6,54.2L219.6,54.2z"/>
	<path fill="#FFFFFF" d="M220.4,14.7c0.6-1.6,0.3-3.4-0.5-4.8c-1.3-2.2-3.9-3.4-6.4-2.9c-1.1-1.3-2.8-2-4.5-2
		c-2.6,0-4.9,1.7-5.7,4.2c-1.6,0.3-3,1.4-3.9,2.8c-1.3,2.2-1,5,0.7,7c-0.6,1.6-0.3,3.4,0.5,4.8c1.3,2.2,3.8,3.4,6.4,2.9
		c1.1,1.3,2.7,2,4.4,2c2.6,0,4.9-1.7,5.7-4.1c1.7-0.3,3.1-1.4,3.9-2.9C222.5,19.5,222.1,16.7,220.4,14.7L220.4,14.7z M218.5,10.7
		c0.5,0.9,0.7,1.9,0.6,3c0,0-0.1-0.1-0.2-0.1l-4.7-2.7c-0.2-0.2-0.6-0.2-0.8,0l-5.5,3.2v-2.4l4.6-2.6
		C214.6,7.8,217.3,8.6,218.5,10.7z M208,15.5l2.3-1.4l2.3,1.4v2.7l-2.3,1.4l-2.3-1.4C208,18.2,208,15.5,208,15.5z M209,6.6
		c1,0,2.1,0.3,2.8,1c0,0-0.1,0.1-0.2,0.1l-4.7,2.7c-0.2,0.2-0.3,0.4-0.3,0.6v6.4l-2-1.2V11C204.6,8.6,206.6,6.6,209,6.6L209,6.6z
		 M200.8,12.8L200.8,12.8c0.5-0.9,1.4-1.6,2.3-1.9v5.6c0,0.3,0.2,0.6,0.4,0.6l5.5,3.2l-2,1.2l-4.6-2.6
		C200.3,17.6,199.6,14.9,200.8,12.8z M202,23.1L202,23.1c-0.6-0.9-0.7-1.9-0.6-3c0,0,0.1,0.1,0.2,0.1l4.7,2.7c0.2,0.2,0.6,0.2,0.8,0
		l5.5-3.2V22l-4.6,2.6C205.9,25.9,203.3,25.2,202,23.1L202,23.1z M211.5,27.1c-1,0-2.1-0.4-2.8-1c0,0,0.1-0.1,0.2-0.1l4.7-2.7
		c0.2-0.2,0.4-0.4,0.4-0.6v-6.4l2,1.2v5.3C216,25.1,214,27.1,211.5,27.1L211.5,27.1z M219.8,20.9c-0.5,0.9-1.4,1.6-2.3,1.9v-5.6
		c0-0.3-0.2-0.6-0.4-0.6l0,0l-5.5-3.2l2-1.1l4.6,2.6C220.3,16.1,221,18.8,219.8,20.9L219.8,20.9z"/>
</g>
</svg>
